<svg xmlns="http://www.w3.org/2000/svg" xmlns:xlink="http://www.w3.org/1999/xlink" xmlns:inkscape="http://www.inkscape.org/namespaces/inkscape" version="1.1" width="214.70099" height="44.25995" viewBox="0 0 214.70099 44.25995">
<defs>
<clipPath id="clip_0">
<path transform="matrix(.58392,0,0,-.58392,3.6519929,39.643983)" d="M0 0H320.584V156.107H0Z"/>
</clipPath>
<clipPath id="clip_1">
<path transform="matrix(.58392,0,0,.58392,3.6519929,-51.50992)" d="M207.07 0H300.476V21.762H207.07Z" clip-rule="evenodd"/>
</clipPath>
<mask id="mask_2">
<g>
<clipPath id="clip_3">
<path transform="matrix(-2.8630725,0,0,-1.6552065,337.67237,93.82144)" d="M55.2764 80.0415H74.4476V87.8026H55.2764Z" clip-rule="evenodd"/>
</clipPath>
<g clip-path="url(#clip_3)">
</g>
</g>
"/>
</mask>
<clipPath id="clip_4">
<path transform="matrix(.58392,0,0,.58392,3.6519929,-51.50992)" d="M0 0H93.406V21.762H0Z" clip-rule="evenodd"/>
</clipPath>
<mask id="mask_5">
<g>
<clipPath id="clip_6">
<path transform="matrix(2.8630725,0,0,1.6552065,-154.91399,-184.13329)" d="M55.3831 80.125H74.5543V87.8861H55.3831Z" clip-rule="evenodd"/>
</clipPath>
<g clip-path="url(#clip_6)">
</g>
</g>
"/>
</mask>
<clipPath id="clip_7">
<path transform="matrix(.58392,0,0,.58392,3.6519929,-51.50992)" d="M0 0H321V157H0Z" clip-rule="evenodd"/>
</clipPath>
<clipPath id="clip_8">
<path transform="matrix(.58392,0,0,.58392,3.6519929,-51.50992)" d="M0 0H321V157H0Z" clip-rule="evenodd"/>
</clipPath>
<clipPath id="clip_9">
<path transform="matrix(.58392,0,0,.58392,3.6519929,-51.50992)" d="M0 0H321V157H0Z" clip-rule="evenodd"/>
</clipPath>
<clipPath id="clip_10">
<path transform="matrix(.58392,0,0,.58392,3.6519929,-51.50992)" d="M0 0H321V157H0Z" clip-rule="evenodd"/>
</clipPath>
<clipPath id="clip_11">
<path transform="matrix(.58392,0,0,.58392,3.6519929,-51.50992)" d="M0 0H321V157H0Z" clip-rule="evenodd"/>
</clipPath>
<clipPath id="clip_12">
<path transform="matrix(.58392,0,0,.58392,3.6519929,-51.50992)" d="M0 0H321V157H0Z" clip-rule="evenodd"/>
</clipPath>
<clipPath id="clip_13">
<path transform="matrix(.58392,0,0,.58392,3.6519929,-51.50992)" d="M0 0H321V157H0Z" clip-rule="evenodd"/>
</clipPath>
<clipPath id="clip_14">
<path transform="matrix(.58392,0,0,.58392,3.6519929,-51.50992)" d="M0 0H321V157H0Z" clip-rule="evenodd"/>
</clipPath>
<clipPath id="clip_15">
<path transform="matrix(.58392,0,0,.58392,3.6519929,-51.50992)" d="M0 0H321V157H0Z" clip-rule="evenodd"/>
</clipPath>
<clipPath id="clip_16">
<path transform="matrix(.58392,0,0,.58392,3.6519929,-51.50992)" d="M0 0H321V157H0Z" clip-rule="evenodd"/>
</clipPath>
<clipPath id="clip_17">
<path transform="matrix(.58392,0,0,.58392,3.6519929,-51.50992)" d="M0 0H321V157H0Z" clip-rule="evenodd"/>
</clipPath>
<clipPath id="clip_18">
<path transform="matrix(.58392,0,0,.58392,3.6519929,-51.50992)" d="M0 0H321V157H0Z" clip-rule="evenodd"/>
</clipPath>
<clipPath id="clip_19">
<path transform="matrix(.58392,0,0,.58392,3.6519929,-51.50992)" d="M0 0H321V157H0Z" clip-rule="evenodd"/>
</clipPath>
<clipPath id="clip_20">
<path transform="matrix(.58392,0,0,.58392,3.6519929,-51.50992)" d="M0 0H321V157H0Z" clip-rule="evenodd"/>
</clipPath>
<clipPath id="clip_21">
<path transform="matrix(.58392,0,0,.58392,3.6519929,-51.50992)" d="M0 0H321V157H0Z" clip-rule="evenodd"/>
</clipPath>
<clipPath id="clip_22">
<path transform="matrix(.58392,0,0,.58392,3.6519929,-51.50992)" d="M0 0H321V157H0Z" clip-rule="evenodd"/>
</clipPath>
<clipPath id="clip_23">
<path transform="matrix(.58392,0,0,.58392,3.6519929,-51.50992)" d="M0 0H321V157H0Z" clip-rule="evenodd"/>
</clipPath>
<clipPath id="clip_24">
<path transform="matrix(.58392,0,0,.58392,3.6519929,-51.50992)" d="M0 0H321V157H0Z" clip-rule="evenodd"/>
</clipPath>
<clipPath id="clip_25">
<path transform="matrix(.58392,0,0,.58392,3.6519929,-51.50992)" d="M0 0H321V157H0Z" clip-rule="evenodd"/>
</clipPath>
<clipPath id="clip_26">
<path transform="matrix(.58392,0,0,.58392,3.6519929,-51.50992)" d="M0 0H321V157H0Z" clip-rule="evenodd"/>
</clipPath>
<clipPath id="clip_27">
<path transform="matrix(.58392,0,0,.58392,3.6519929,-51.50992)" d="M0 0H321V157H0Z" clip-rule="evenodd"/>
</clipPath>
<clipPath id="clip_28">
<path transform="matrix(.58392,0,0,.58392,3.6519929,-51.50992)" d="M0 0H321V157H0Z" clip-rule="evenodd"/>
</clipPath>
<clipPath id="clip_29">
<path transform="matrix(.58392,0,0,.58392,3.6519929,-51.50992)" d="M0 0H321V157H0Z" clip-rule="evenodd"/>
</clipPath>
<clipPath id="clip_30">
<path transform="matrix(.58392,0,0,.58392,3.6519929,-51.50992)" d="M0 0H321V157H0Z" clip-rule="evenodd"/>
</clipPath>
<clipPath id="clip_31">
<path transform="matrix(.58392,0,0,.58392,3.6519929,-51.50992)" d="M0 0H321V157H0Z" clip-rule="evenodd"/>
</clipPath>
<clipPath id="clip_32">
<path transform="matrix(.58392,0,0,.58392,3.6519929,-51.50992)" d="M0 0H321V157H0Z" clip-rule="evenodd"/>
</clipPath>
<clipPath id="clip_33">
<path transform="matrix(.58392,0,0,.58392,3.6519929,-51.50992)" d="M0 0H321V157H0Z" clip-rule="evenodd"/>
</clipPath>
<clipPath id="clip_34">
<path transform="matrix(.58392,0,0,.58392,3.6519929,-51.50992)" d="M0 0H321V157H0Z" clip-rule="evenodd"/>
</clipPath>
<clipPath id="clip_35">
<path transform="matrix(.58392,0,0,.58392,3.6519929,-51.50992)" d="M0 0H321V157H0Z" clip-rule="evenodd"/>
</clipPath>
<clipPath id="clip_36">
<path transform="matrix(.58392,0,0,.58392,3.6519929,-51.50992)" d="M0 0H321V157H0Z" clip-rule="evenodd"/>
</clipPath>
<clipPath id="clip_37">
<path transform="matrix(.58392,0,0,.58392,3.6519929,-51.50992)" d="M0 0H321V157H0Z" clip-rule="evenodd"/>
</clipPath>
<clipPath id="clip_38">
<path transform="matrix(.58392,0,0,.58392,3.6519929,-51.50992)" d="M0 0H321V157H0Z" clip-rule="evenodd"/>
</clipPath>
<clipPath id="clip_39">
<path transform="matrix(.58392,0,0,.58392,3.6519929,-51.50992)" d="M0 0H321V157H0Z" clip-rule="evenodd"/>
</clipPath>
<clipPath id="clip_40">
<path transform="matrix(.58392,0,0,.58392,3.6519929,-51.50992)" d="M0 0H321V157H0Z" clip-rule="evenodd"/>
</clipPath>
<clipPath id="clip_41">
<path transform="matrix(.58392,0,0,.58392,3.6519929,-51.50992)" d="M0 0H321V157H0Z" clip-rule="evenodd"/>
</clipPath>
<clipPath id="clip_42">
<path transform="matrix(.58392,0,0,.58392,3.6519929,-51.50992)" d="M0 0H321V157H0Z" clip-rule="evenodd"/>
</clipPath>
<clipPath id="clip_43">
<path transform="matrix(.58392,0,0,.58392,3.6519929,-51.50992)" d="M0 0H321V157H0Z" clip-rule="evenodd"/>
</clipPath>
<clipPath id="clip_44">
<path transform="matrix(.58392,0,0,.58392,3.6519929,-51.50992)" d="M0 0H321V157H0Z" clip-rule="evenodd"/>
</clipPath>
<clipPath id="clip_45">
<path transform="matrix(.58392,0,0,.58392,3.6519929,-51.50992)" d="M0 0H321V157H0Z" clip-rule="evenodd"/>
</clipPath>
<clipPath id="clip_46">
<path transform="matrix(.58392,0,0,.58392,3.6519929,-51.50992)" d="M0 0H321V157H0Z" clip-rule="evenodd"/>
</clipPath>
<clipPath id="clip_47">
<path transform="matrix(.58392,0,0,.58392,3.6519929,-51.50992)" d="M0 0H321V157H0Z" clip-rule="evenodd"/>
</clipPath>
<clipPath id="clip_48">
<path transform="matrix(.58392,0,0,.58392,3.6519929,-51.50992)" d="M0 0H321V157H0Z" clip-rule="evenodd"/>
</clipPath>
<clipPath id="clip_49">
<path transform="matrix(.58392,0,0,.58392,3.6519929,-51.50992)" d="M0 0H321V157H0Z" clip-rule="evenodd"/>
</clipPath>
<clipPath id="clip_50">
<path transform="matrix(.58392,0,0,.58392,3.6519929,-51.50992)" d="M0 0H321V157H0Z" clip-rule="evenodd"/>
</clipPath>
<clipPath id="clip_51">
<path transform="matrix(1,0,0,-1,-208.75,669.79)" d="M208.75 625.53H423.451V669.79H208.75Z"/>
</clipPath>
</defs>
<g>
<g>
<g clip-path="url(#clip_0)">
<path transform="matrix(.58392,0,0,.58392,3.6519929,-51.50992)" d="M176.16 156.105 205.777 97.551H296.801L179.086 156.105" fill="#fffbf8"/>
<path transform="matrix(.58392,0,0,.58392,3.6519929,-51.50992)" d="M173.379 156.105 199.516 97.551H292.895L179.223 156.105" fill="#fff7f2"/>
<path transform="matrix(.58392,0,0,.58392,3.6519929,-51.50992)" d="M170.594 156.105 193.25 97.551H288.984L179.363 156.105" fill="#fff4ec"/>
<path transform="matrix(.58392,0,0,.58392,3.6519929,-51.50992)" d="M167.809 156.105 186.988 97.551H285.074L179.5 156.105" fill="#fff0e6"/>
<path transform="matrix(.58392,0,0,.58392,3.6519929,-51.50992)" d="M165.027 156.105 180.723 97.551H281.164L179.645 156.105" fill="#ffece0"/>
<path transform="matrix(.58392,0,0,.58392,3.6519929,-51.50992)" d="M162.242 156.105 174.457 97.551H277.258L179.781 156.105" fill="#ffe9da"/>
<path transform="matrix(.58392,0,0,.58392,3.6519929,-51.50992)" d="M159.461 156.105 168.195 97.551H273.348L179.922 156.105" fill="#ffe5d4"/>
<path transform="matrix(.58392,0,0,.58392,3.6519929,-51.50992)" d="M156.676 156.105 161.934 97.551H269.438L180.059 156.105" fill="#ffe2ce"/>
<path transform="matrix(.58392,0,0,.58392,3.6519929,-51.50992)" d="M153.891 156.105 155.668 97.551H265.527L180.199 156.105" fill="#ffdec8"/>
<path transform="matrix(.58392,0,0,.58392,3.6519929,-51.50992)" d="M151.109 156.105 149.406 97.551H261.617L180.336 156.105" fill="#ffdac2"/>
<path transform="matrix(.58392,0,0,.58392,3.6519929,-51.50992)" d="M148.324 156.105 143.141 97.551H257.707L180.477 156.105" fill="#ffd7bc"/>
<path transform="matrix(.58392,0,0,.58392,3.6519929,-51.50992)" d="M145.539 156.105 136.879 97.551H253.801L180.613 156.105" fill="#ffd3b6"/>
<path transform="matrix(.58392,0,0,.58392,3.6519929,-51.50992)" d="M142.758 156.105 130.617 97.551H249.891L180.754 156.105" fill="#ffcfb0"/>
<path transform="matrix(.58392,0,0,.58392,3.6519929,-51.50992)" d="M139.973 156.105 124.352 97.551H245.98L180.895 156.105" fill="#ffccaa"/>
<path transform="matrix(.58392,0,0,.58392,3.6519929,-51.50992)" d="M137.191 156.105 118.09 97.551H242.074L181.035 156.105" fill="#ffc8a4"/>
<path transform="matrix(.58392,0,0,.58392,3.6519929,-51.50992)" d="M134.406 156.105 111.824 97.551H238.164L181.172 156.105" fill="#ffc59e"/>
<path transform="matrix(.58392,0,0,.58392,3.6519929,-51.50992)" d="M131.621 156.105 105.562 97.551H234.254L181.312 156.105" fill="#ffc198"/>
<path transform="matrix(.58392,0,0,.58392,3.6519929,-51.50992)" d="M128.84 156.105 99.297 97.551H230.348L181.453 156.105" fill="#ffbd92"/>
<path transform="matrix(.58392,0,0,.58392,3.6519929,-51.50992)" d="M126.055 156.105 93.035 97.551H226.438L181.59 156.105" fill="#ffba8c"/>
<path transform="matrix(.58392,0,0,.58392,3.6519929,-51.50992)" d="M123.27 156.105 86.773 97.551H222.523L181.73 156.105" fill="#ffb686"/>
<path transform="matrix(.58392,0,0,.58392,3.6519929,-51.50992)" d="M176.16 156.105 205.777 97.551H296.801L179.086 156.105" fill="#fffbf8"/>
<path transform="matrix(.58392,0,0,.58392,3.6519929,-51.50992)" d="M173.379 156.105 199.516 97.551H292.895L179.223 156.105" fill="#fff7f2"/>
<path transform="matrix(.58392,0,0,.58392,3.6519929,-51.50992)" d="M170.594 156.105 193.25 97.551H288.984L179.363 156.105" fill="#fff4ec"/>
<path transform="matrix(.58392,0,0,.58392,3.6519929,-51.50992)" d="M167.809 156.105 186.988 97.551H285.074L179.5 156.105" fill="#fff0e6"/>
<path transform="matrix(.58392,0,0,.58392,3.6519929,-51.50992)" d="M165.027 156.105 180.723 97.551H281.164L179.645 156.105" fill="#ffece0"/>
<path transform="matrix(.58392,0,0,.58392,3.6519929,-51.50992)" d="M162.242 156.105 174.457 97.551H277.258L179.781 156.105" fill="#ffe9da"/>
<path transform="matrix(.58392,0,0,.58392,3.6519929,-51.50992)" d="M159.461 156.105 168.195 97.551H273.348L179.922 156.105" fill="#ffe5d4"/>
<path transform="matrix(.58392,0,0,.58392,3.6519929,-51.50992)" d="M156.676 156.105 161.934 97.551H269.438L180.059 156.105" fill="#ffe2ce"/>
<path transform="matrix(.58392,0,0,.58392,3.6519929,-51.50992)" d="M153.891 156.105 155.668 97.551H265.527L180.199 156.105" fill="#ffdec8"/>
<path transform="matrix(.58392,0,0,.58392,3.6519929,-51.50992)" d="M151.109 156.105 149.406 97.551H261.617L180.336 156.105" fill="#ffdac2"/>
<path transform="matrix(.58392,0,0,.58392,3.6519929,-51.50992)" d="M148.324 156.105 143.141 97.551H257.707L180.477 156.105" fill="#ffd7bc"/>
<path transform="matrix(.58392,0,0,.58392,3.6519929,-51.50992)" d="M145.539 156.105 136.879 97.551H253.801L180.613 156.105" fill="#ffd3b6"/>
<path transform="matrix(.58392,0,0,.58392,3.6519929,-51.50992)" d="M142.758 156.105 130.617 97.551H249.891L180.754 156.105" fill="#ffcfb0"/>
<path transform="matrix(.58392,0,0,.58392,3.6519929,-51.50992)" d="M139.973 156.105 124.352 97.551H245.98L180.895 156.105" fill="#ffccaa"/>
<path transform="matrix(.58392,0,0,.58392,3.6519929,-51.50992)" d="M137.191 156.105 118.09 97.551H242.074L181.035 156.105" fill="#ffc8a4"/>
<path transform="matrix(.58392,0,0,.58392,3.6519929,-51.50992)" d="M134.406 156.105 111.824 97.551H238.164L181.172 156.105" fill="#ffc59e"/>
<path transform="matrix(.58392,0,0,.58392,3.6519929,-51.50992)" d="M131.621 156.105 105.562 97.551H234.254L181.312 156.105" fill="#ffc198"/>
<path transform="matrix(.58392,0,0,.58392,3.6519929,-51.50992)" d="M128.84 156.105 99.297 97.551H230.348L181.453 156.105" fill="#ffbd92"/>
<path transform="matrix(.58392,0,0,.58392,3.6519929,-51.50992)" d="M126.055 156.105 93.035 97.551H226.438L181.59 156.105" fill="#ffba8c"/>
<path transform="matrix(.58392,0,0,.58392,3.6519929,-51.50992)" d="M123.27 156.105 86.773 97.551H222.523L181.73 156.105" fill="#ffb686"/>
<path transform="matrix(.58392,0,0,.58392,3.6519929,-51.50992)" d="M120.488 156.105 5.562 97.445 87.086 97.551 123.41 156.105" fill="#fffbf8"/>
<path transform="matrix(.58392,0,0,.58392,3.6519929,-51.50992)" d="M120.488 156.105 9.309 97.453 93.66 97.551 126.332 156.105" fill="#fff7f2"/>
<path transform="matrix(.58392,0,0,.58392,3.6519929,-51.50992)" d="M120.488 156.105 13.059 97.457 100.238 97.551 129.258 156.105" fill="#fff4ec"/>
<path transform="matrix(.58392,0,0,.58392,3.6519929,-51.50992)" d="M120.488 156.105 16.805 97.461 106.816 97.551 132.18 156.105" fill="#fff0e6"/>
<path transform="matrix(.58392,0,0,.58392,3.6519929,-51.50992)" d="M120.488 156.105 20.551 97.465 113.391 97.551 135.102 156.105" fill="#ffece0"/>
<path transform="matrix(.58392,0,0,.58392,3.6519929,-51.50992)" d="M120.488 156.105 24.301 97.473 119.969 97.551 138.023 156.105" fill="#ffe9da"/>
<path transform="matrix(.58392,0,0,.58392,3.6519929,-51.50992)" d="M120.488 156.105 28.047 97.477 126.543 97.551 140.949 156.105" fill="#ffe5d4"/>
<path transform="matrix(.58392,0,0,.58392,3.6519929,-51.50992)" d="M120.488 156.105 31.793 97.484 133.121 97.551 143.871 156.105" fill="#ffe2ce"/>
<path transform="matrix(.58392,0,0,.58392,3.6519929,-51.50992)" d="M120.488 156.105 35.543 97.488 139.699 97.551 146.793 156.105" fill="#ffdec8"/>
<path transform="matrix(.58392,0,0,.58392,3.6519929,-51.50992)" d="M120.488 156.105 39.289 97.496 146.273 97.551 149.715 156.105" fill="#ffdac2"/>
<path transform="matrix(.58392,0,0,.58392,3.6519929,-51.50992)" d="M120.488 156.105 43.035 97.5 152.852 97.551 152.641 156.105" fill="#ffd7bc"/>
<path transform="matrix(.58392,0,0,.58392,3.6519929,-51.50992)" d="M120.488 156.105 46.781 97.504 159.426 97.551 155.562 156.105" fill="#ffd3b6"/>
<path transform="matrix(.58392,0,0,.58392,3.6519929,-51.50992)" d="M120.488 156.105 50.531 97.508 166.004 97.551 158.484 156.105" fill="#ffcfb0"/>
<path transform="matrix(.58392,0,0,.58392,3.6519929,-51.50992)" d="M120.488 156.105 54.277 97.516 172.582 97.551 161.41 156.105" fill="#ffccaa"/>
<path transform="matrix(.58392,0,0,.58392,3.6519929,-51.50992)" d="M120.488 156.105 58.023 97.52 179.156 97.551 164.332 156.105" fill="#ffc8a4"/>
<path transform="matrix(.58392,0,0,.58392,3.6519929,-51.50992)" d="M120.488 156.105 61.773 97.527 185.734 97.551 167.254 156.105" fill="#ffc59e"/>
<path transform="matrix(.58392,0,0,.58392,3.6519929,-51.50992)" d="M120.488 156.105 65.52 97.531 192.312 97.551 170.18 156.105" fill="#ffc198"/>
<path transform="matrix(.58392,0,0,.58392,3.6519929,-51.50992)" d="M120.488 156.105 69.266 97.539 198.887 97.551 173.102 156.105" fill="#ffbd92"/>
<path transform="matrix(.58392,0,0,.58392,3.6519929,-51.50992)" d="M120.488 156.105 73.012 97.539 205.465 97.551 176.023 156.105" fill="#ffba8c"/>
<path transform="matrix(.58392,0,0,.58392,3.6519929,-51.50992)" d="M120.488 156.105 76.762 97.547 212.039 97.551 178.945 156.105" fill="#ffb686"/>
<g clip-path="url(#clip_1)">
<g mask="url(#mask_2)">
</g>
</g>
<g clip-path="url(#clip_4)">
<g mask="url(#mask_5)">
</g>
</g>
<path transform="matrix(.58392,0,0,.58392,3.6519929,-51.50992)" d="M93.047 0H207.5V21.762H93.047Z" fill="#ffb380" fill-rule="evenodd"/>
<path transform="matrix(.58392,0,0,.58392,3.6519929,-51.50992)" d="M111.352 37.5H190.883V59.262H111.352Z" fill="#ffb380" fill-rule="evenodd"/>
<g opacity=".98">
<g clip-path="url(#clip_7)">
<path transform="matrix(.58392,0,0,.58392,3.6519929,-51.50992)" d="M12.32 48.426C12.32 50.371 10.742 51.953 8.797 51.953 6.848 51.953 5.27 50.371 5.27 48.426 5.27 46.48 6.848 44.902 8.797 44.902 10.742 44.902 12.32 46.48 12.32 48.426ZM12.32 48.426" fill-rule="evenodd"/>
<path transform="matrix(.58392,0,0,.58392,3.6519929,-51.50992)" stroke-width=".566929" stroke-linecap="butt" stroke-miterlimit="4" stroke-linejoin="miter" fill="none" stroke="#000000" d="M12.32 48.426C12.32 50.371 10.742 51.953 8.797 51.953 6.848 51.953 5.27 50.371 5.27 48.426 5.27 46.48 6.848 44.902 8.797 44.902 10.742 44.902 12.32 46.48 12.32 48.426ZM12.32 48.426"/>
</g>
</g>
<g opacity=".98">
<g clip-path="url(#clip_8)">
<path transform="matrix(.58392,0,0,.58392,3.6519929,-51.50992)" d="M40.668 48.426C40.668 50.371 39.09 51.953 37.141 51.953 35.195 51.953 33.617 50.371 33.617 48.426 33.617 46.48 35.195 44.902 37.141 44.902 39.09 44.902 40.668 46.48 40.668 48.426ZM40.668 48.426" fill-rule="evenodd"/>
<path transform="matrix(.58392,0,0,.58392,3.6519929,-51.50992)" stroke-width=".566929" stroke-linecap="butt" stroke-miterlimit="4" stroke-linejoin="miter" fill="none" stroke="#000000" d="M40.668 48.426C40.668 50.371 39.09 51.953 37.141 51.953 35.195 51.953 33.617 50.371 33.617 48.426 33.617 46.48 35.195 44.902 37.141 44.902 39.09 44.902 40.668 46.48 40.668 48.426ZM40.668 48.426"/>
</g>
</g>
<g opacity=".98">
<g clip-path="url(#clip_9)">
<path transform="matrix(.58392,0,0,.58392,3.6519929,-51.50992)" d="M69.012 48.426C69.012 50.371 67.434 51.953 65.488 51.953 63.543 51.953 61.965 50.371 61.965 48.426 61.965 46.48 63.543 44.902 65.488 44.902 67.434 44.902 69.012 46.48 69.012 48.426ZM69.012 48.426" fill-rule="evenodd"/>
<path transform="matrix(.58392,0,0,.58392,3.6519929,-51.50992)" stroke-width=".566929" stroke-linecap="butt" stroke-miterlimit="4" stroke-linejoin="miter" fill="none" stroke="#000000" d="M69.012 48.426C69.012 50.371 67.434 51.953 65.488 51.953 63.543 51.953 61.965 50.371 61.965 48.426 61.965 46.48 63.543 44.902 65.488 44.902 67.434 44.902 69.012 46.48 69.012 48.426ZM69.012 48.426"/>
</g>
</g>
<g opacity=".98">
<g clip-path="url(#clip_10)">
<path transform="matrix(.58392,0,0,.58392,3.6519929,-51.50992)" d="M97.359 48.426C97.359 50.371 95.781 51.953 93.836 51.953 91.887 51.953 90.309 50.371 90.309 48.426 90.309 46.48 91.887 44.902 93.836 44.902 95.781 44.902 97.359 46.48 97.359 48.426ZM97.359 48.426" fill-rule="evenodd"/>
<path transform="matrix(.58392,0,0,.58392,3.6519929,-51.50992)" stroke-width=".566929" stroke-linecap="butt" stroke-miterlimit="4" stroke-linejoin="miter" fill="none" stroke="#000000" d="M97.359 48.426C97.359 50.371 95.781 51.953 93.836 51.953 91.887 51.953 90.309 50.371 90.309 48.426 90.309 46.48 91.887 44.902 93.836 44.902 95.781 44.902 97.359 46.48 97.359 48.426ZM97.359 48.426"/>
</g>
</g>
<g opacity=".98">
<g clip-path="url(#clip_11)">
<path transform="matrix(.58392,0,0,.58392,3.6519929,-51.50992)" d="M125.707 48.426C125.707 50.371 124.129 51.953 122.18 51.953 120.234 51.953 118.656 50.371 118.656 48.426 118.656 46.48 120.234 44.902 122.18 44.902 124.129 44.902 125.707 46.48 125.707 48.426ZM125.707 48.426" fill-rule="evenodd"/>
<path transform="matrix(.58392,0,0,.58392,3.6519929,-51.50992)" stroke-width=".566929" stroke-linecap="butt" stroke-miterlimit="4" stroke-linejoin="miter" fill="none" stroke="#000000" d="M125.707 48.426C125.707 50.371 124.129 51.953 122.18 51.953 120.234 51.953 118.656 50.371 118.656 48.426 118.656 46.48 120.234 44.902 122.18 44.902 124.129 44.902 125.707 46.48 125.707 48.426ZM125.707 48.426"/>
</g>
</g>
<g opacity=".98">
<g clip-path="url(#clip_12)">
<path transform="matrix(.58392,0,0,.58392,3.6519929,-51.50992)" d="M154.055 48.426C154.055 50.371 152.477 51.953 150.527 51.953 148.582 51.953 147.004 50.371 147.004 48.426 147.004 46.48 148.582 44.902 150.527 44.902 152.477 44.902 154.055 46.48 154.055 48.426ZM154.055 48.426" fill-rule="evenodd"/>
<path transform="matrix(.58392,0,0,.58392,3.6519929,-51.50992)" stroke-width=".566929" stroke-linecap="butt" stroke-miterlimit="4" stroke-linejoin="miter" fill="none" stroke="#000000" d="M154.055 48.426C154.055 50.371 152.477 51.953 150.527 51.953 148.582 51.953 147.004 50.371 147.004 48.426 147.004 46.48 148.582 44.902 150.527 44.902 152.477 44.902 154.055 46.48 154.055 48.426ZM154.055 48.426"/>
</g>
</g>
<g opacity=".98">
<g clip-path="url(#clip_13)">
<path transform="matrix(.58392,0,0,.58392,3.6519929,-51.50992)" d="M182.398 48.426C182.398 50.371 180.82 51.953 178.875 51.953 176.926 51.953 175.348 50.371 175.348 48.426 175.348 46.48 176.926 44.902 178.875 44.902 180.82 44.902 182.398 46.48 182.398 48.426ZM182.398 48.426" fill-rule="evenodd"/>
<path transform="matrix(.58392,0,0,.58392,3.6519929,-51.50992)" stroke-width=".566929" stroke-linecap="butt" stroke-miterlimit="4" stroke-linejoin="miter" fill="none" stroke="#000000" d="M182.398 48.426C182.398 50.371 180.82 51.953 178.875 51.953 176.926 51.953 175.348 50.371 175.348 48.426 175.348 46.48 176.926 44.902 178.875 44.902 180.82 44.902 182.398 46.48 182.398 48.426ZM182.398 48.426"/>
</g>
</g>
<g opacity=".98">
<g clip-path="url(#clip_14)">
<path transform="matrix(.58392,0,0,.58392,3.6519929,-51.50992)" d="M210.746 48.426C210.746 50.371 209.168 51.953 207.223 51.953 205.273 51.953 203.695 50.371 203.695 48.426 203.695 46.48 205.273 44.902 207.223 44.902 209.168 44.902 210.746 46.48 210.746 48.426ZM210.746 48.426" fill-rule="evenodd"/>
<path transform="matrix(.58392,0,0,.58392,3.6519929,-51.50992)" stroke-width=".566929" stroke-linecap="butt" stroke-miterlimit="4" stroke-linejoin="miter" fill="none" stroke="#000000" d="M210.746 48.426C210.746 50.371 209.168 51.953 207.223 51.953 205.273 51.953 203.695 50.371 203.695 48.426 203.695 46.48 205.273 44.902 207.223 44.902 209.168 44.902 210.746 46.48 210.746 48.426ZM210.746 48.426"/>
</g>
</g>
<g opacity=".98">
<g clip-path="url(#clip_15)">
<path transform="matrix(.58392,0,0,.58392,3.6519929,-51.50992)" d="M239.094 48.426C239.094 50.371 237.516 51.953 235.566 51.953 233.621 51.953 232.043 50.371 232.043 48.426 232.043 46.48 233.621 44.902 235.566 44.902 237.516 44.902 239.094 46.48 239.094 48.426ZM239.094 48.426" fill-rule="evenodd"/>
<path transform="matrix(.58392,0,0,.58392,3.6519929,-51.50992)" stroke-width=".566929" stroke-linecap="butt" stroke-miterlimit="4" stroke-linejoin="miter" fill="none" stroke="#000000" d="M239.094 48.426C239.094 50.371 237.516 51.953 235.566 51.953 233.621 51.953 232.043 50.371 232.043 48.426 232.043 46.48 233.621 44.902 235.566 44.902 237.516 44.902 239.094 46.48 239.094 48.426ZM239.094 48.426"/>
</g>
</g>
<g opacity=".98">
<g clip-path="url(#clip_16)">
<path transform="matrix(.58392,0,0,.58392,3.6519929,-51.50992)" d="M267.438 48.426C267.438 50.371 265.859 51.953 263.914 51.953 261.969 51.953 260.391 50.371 260.391 48.426 260.391 46.48 261.969 44.902 263.914 44.902 265.859 44.902 267.438 46.48 267.438 48.426ZM267.438 48.426" fill-rule="evenodd"/>
<path transform="matrix(.58392,0,0,.58392,3.6519929,-51.50992)" stroke-width=".566929" stroke-linecap="butt" stroke-miterlimit="4" stroke-linejoin="miter" fill="none" stroke="#000000" d="M267.438 48.426C267.438 50.371 265.859 51.953 263.914 51.953 261.969 51.953 260.391 50.371 260.391 48.426 260.391 46.48 261.969 44.902 263.914 44.902 265.859 44.902 267.438 46.48 267.438 48.426ZM267.438 48.426"/>
</g>
</g>
<g opacity=".98">
<g clip-path="url(#clip_17)">
<path transform="matrix(.58392,0,0,.58392,3.6519929,-51.50992)" d="M295.785 48.426C295.785 50.371 294.207 51.953 292.262 51.953 290.312 51.953 288.734 50.371 288.734 48.426 288.734 46.48 290.312 44.902 292.262 44.902 294.207 44.902 295.785 46.48 295.785 48.426ZM295.785 48.426" fill-rule="evenodd"/>
<path transform="matrix(.58392,0,0,.58392,3.6519929,-51.50992)" stroke-width=".566929" stroke-linecap="butt" stroke-miterlimit="4" stroke-linejoin="miter" fill="none" stroke="#000000" d="M295.785 48.426C295.785 50.371 294.207 51.953 292.262 51.953 290.312 51.953 288.734 50.371 288.734 48.426 288.734 46.48 290.312 44.902 292.262 44.902 294.207 44.902 295.785 46.48 295.785 48.426ZM295.785 48.426"/>
</g>
</g>
<g opacity=".98">
<g clip-path="url(#clip_18)">
<path transform="matrix(.58392,0,0,.58392,3.6519929,-51.50992)" d="M12.32 11.078C12.32 13.027 10.742 14.605 8.797 14.605 6.848 14.605 5.27 13.027 5.27 11.078 5.27 9.133 6.848 7.555 8.797 7.555 10.742 7.555 12.32 9.133 12.32 11.078ZM12.32 11.078" fill-rule="evenodd"/>
<path transform="matrix(.58392,0,0,.58392,3.6519929,-51.50992)" stroke-width=".566929" stroke-linecap="butt" stroke-miterlimit="4" stroke-linejoin="miter" fill="none" stroke="#000000" d="M12.32 11.078C12.32 13.027 10.742 14.605 8.797 14.605 6.848 14.605 5.27 13.027 5.27 11.078 5.27 9.133 6.848 7.555 8.797 7.555 10.742 7.555 12.32 9.133 12.32 11.078ZM12.32 11.078"/>
</g>
</g>
<g opacity=".98">
<g clip-path="url(#clip_19)">
<path transform="matrix(.58392,0,0,.58392,3.6519929,-51.50992)" d="M40.668 11.078C40.668 13.027 39.09 14.605 37.141 14.605 35.195 14.605 33.617 13.027 33.617 11.078 33.617 9.133 35.195 7.555 37.141 7.555 39.09 7.555 40.668 9.133 40.668 11.078ZM40.668 11.078" fill-rule="evenodd"/>
<path transform="matrix(.58392,0,0,.58392,3.6519929,-51.50992)" stroke-width=".566929" stroke-linecap="butt" stroke-miterlimit="4" stroke-linejoin="miter" fill="none" stroke="#000000" d="M40.668 11.078C40.668 13.027 39.09 14.605 37.141 14.605 35.195 14.605 33.617 13.027 33.617 11.078 33.617 9.133 35.195 7.555 37.141 7.555 39.09 7.555 40.668 9.133 40.668 11.078ZM40.668 11.078"/>
</g>
</g>
<g opacity=".98">
<g clip-path="url(#clip_20)">
<path transform="matrix(.58392,0,0,.58392,3.6519929,-51.50992)" d="M69.012 11.078C69.012 13.027 67.434 14.605 65.488 14.605 63.543 14.605 61.965 13.027 61.965 11.078 61.965 9.133 63.543 7.555 65.488 7.555 67.434 7.555 69.012 9.133 69.012 11.078ZM69.012 11.078" fill-rule="evenodd"/>
<path transform="matrix(.58392,0,0,.58392,3.6519929,-51.50992)" stroke-width=".566929" stroke-linecap="butt" stroke-miterlimit="4" stroke-linejoin="miter" fill="none" stroke="#000000" d="M69.012 11.078C69.012 13.027 67.434 14.605 65.488 14.605 63.543 14.605 61.965 13.027 61.965 11.078 61.965 9.133 63.543 7.555 65.488 7.555 67.434 7.555 69.012 9.133 69.012 11.078ZM69.012 11.078"/>
</g>
</g>
<g opacity=".98">
<g clip-path="url(#clip_21)">
<path transform="matrix(.58392,0,0,.58392,3.6519929,-51.50992)" d="M97.359 11.078C97.359 13.027 95.781 14.605 93.836 14.605 91.887 14.605 90.309 13.027 90.309 11.078 90.309 9.133 91.887 7.555 93.836 7.555 95.781 7.555 97.359 9.133 97.359 11.078ZM97.359 11.078" fill-rule="evenodd"/>
<path transform="matrix(.58392,0,0,.58392,3.6519929,-51.50992)" stroke-width=".566929" stroke-linecap="butt" stroke-miterlimit="4" stroke-linejoin="miter" fill="none" stroke="#000000" d="M97.359 11.078C97.359 13.027 95.781 14.605 93.836 14.605 91.887 14.605 90.309 13.027 90.309 11.078 90.309 9.133 91.887 7.555 93.836 7.555 95.781 7.555 97.359 9.133 97.359 11.078ZM97.359 11.078"/>
</g>
</g>
<g opacity=".98">
<g clip-path="url(#clip_22)">
<path transform="matrix(.58392,0,0,.58392,3.6519929,-51.50992)" d="M125.707 11.078C125.707 13.027 124.129 14.605 122.18 14.605 120.234 14.605 118.656 13.027 118.656 11.078 118.656 9.133 120.234 7.555 122.18 7.555 124.129 7.555 125.707 9.133 125.707 11.078ZM125.707 11.078" fill-rule="evenodd"/>
<path transform="matrix(.58392,0,0,.58392,3.6519929,-51.50992)" stroke-width=".566929" stroke-linecap="butt" stroke-miterlimit="4" stroke-linejoin="miter" fill="none" stroke="#000000" d="M125.707 11.078C125.707 13.027 124.129 14.605 122.18 14.605 120.234 14.605 118.656 13.027 118.656 11.078 118.656 9.133 120.234 7.555 122.18 7.555 124.129 7.555 125.707 9.133 125.707 11.078ZM125.707 11.078"/>
</g>
</g>
<g opacity=".98">
<g clip-path="url(#clip_23)">
<path transform="matrix(.58392,0,0,.58392,3.6519929,-51.50992)" d="M154.055 11.078C154.055 13.027 152.477 14.605 150.527 14.605 148.582 14.605 147.004 13.027 147.004 11.078 147.004 9.133 148.582 7.555 150.527 7.555 152.477 7.555 154.055 9.133 154.055 11.078ZM154.055 11.078" fill-rule="evenodd"/>
<path transform="matrix(.58392,0,0,.58392,3.6519929,-51.50992)" stroke-width=".566929" stroke-linecap="butt" stroke-miterlimit="4" stroke-linejoin="miter" fill="none" stroke="#000000" d="M154.055 11.078C154.055 13.027 152.477 14.605 150.527 14.605 148.582 14.605 147.004 13.027 147.004 11.078 147.004 9.133 148.582 7.555 150.527 7.555 152.477 7.555 154.055 9.133 154.055 11.078ZM154.055 11.078"/>
</g>
</g>
<g opacity=".98">
<g clip-path="url(#clip_24)">
<path transform="matrix(.58392,0,0,.58392,3.6519929,-51.50992)" d="M182.398 11.078C182.398 13.027 180.82 14.605 178.875 14.605 176.926 14.605 175.348 13.027 175.348 11.078 175.348 9.133 176.926 7.555 178.875 7.555 180.82 7.555 182.398 9.133 182.398 11.078ZM182.398 11.078" fill-rule="evenodd"/>
<path transform="matrix(.58392,0,0,.58392,3.6519929,-51.50992)" stroke-width=".566929" stroke-linecap="butt" stroke-miterlimit="4" stroke-linejoin="miter" fill="none" stroke="#000000" d="M182.398 11.078C182.398 13.027 180.82 14.605 178.875 14.605 176.926 14.605 175.348 13.027 175.348 11.078 175.348 9.133 176.926 7.555 178.875 7.555 180.82 7.555 182.398 9.133 182.398 11.078ZM182.398 11.078"/>
</g>
</g>
<g opacity=".98">
<g clip-path="url(#clip_25)">
<path transform="matrix(.58392,0,0,.58392,3.6519929,-51.50992)" d="M210.746 11.078C210.746 13.027 209.168 14.605 207.223 14.605 205.273 14.605 203.695 13.027 203.695 11.078 203.695 9.133 205.273 7.555 207.223 7.555 209.168 7.555 210.746 9.133 210.746 11.078ZM210.746 11.078" fill-rule="evenodd"/>
<path transform="matrix(.58392,0,0,.58392,3.6519929,-51.50992)" stroke-width=".566929" stroke-linecap="butt" stroke-miterlimit="4" stroke-linejoin="miter" fill="none" stroke="#000000" d="M210.746 11.078C210.746 13.027 209.168 14.605 207.223 14.605 205.273 14.605 203.695 13.027 203.695 11.078 203.695 9.133 205.273 7.555 207.223 7.555 209.168 7.555 210.746 9.133 210.746 11.078ZM210.746 11.078"/>
</g>
</g>
<g opacity=".98">
<g clip-path="url(#clip_26)">
<path transform="matrix(.58392,0,0,.58392,3.6519929,-51.50992)" d="M239.094 11.078C239.094 13.027 237.516 14.605 235.566 14.605 233.621 14.605 232.043 13.027 232.043 11.078 232.043 9.133 233.621 7.555 235.566 7.555 237.516 7.555 239.094 9.133 239.094 11.078ZM239.094 11.078" fill-rule="evenodd"/>
<path transform="matrix(.58392,0,0,.58392,3.6519929,-51.50992)" stroke-width=".566929" stroke-linecap="butt" stroke-miterlimit="4" stroke-linejoin="miter" fill="none" stroke="#000000" d="M239.094 11.078C239.094 13.027 237.516 14.605 235.566 14.605 233.621 14.605 232.043 13.027 232.043 11.078 232.043 9.133 233.621 7.555 235.566 7.555 237.516 7.555 239.094 9.133 239.094 11.078ZM239.094 11.078"/>
</g>
</g>
<g opacity=".98">
<g clip-path="url(#clip_27)">
<path transform="matrix(.58392,0,0,.58392,3.6519929,-51.50992)" d="M267.438 11.078C267.438 13.027 265.859 14.605 263.914 14.605 261.969 14.605 260.391 13.027 260.391 11.078 260.391 9.133 261.969 7.555 263.914 7.555 265.859 7.555 267.438 9.133 267.438 11.078ZM267.438 11.078" fill-rule="evenodd"/>
<path transform="matrix(.58392,0,0,.58392,3.6519929,-51.50992)" stroke-width=".566929" stroke-linecap="butt" stroke-miterlimit="4" stroke-linejoin="miter" fill="none" stroke="#000000" d="M267.438 11.078C267.438 13.027 265.859 14.605 263.914 14.605 261.969 14.605 260.391 13.027 260.391 11.078 260.391 9.133 261.969 7.555 263.914 7.555 265.859 7.555 267.438 9.133 267.438 11.078ZM267.438 11.078"/>
</g>
</g>
<g opacity=".98">
<g clip-path="url(#clip_28)">
<path transform="matrix(.58392,0,0,.58392,3.6519929,-51.50992)" d="M295.785 11.078C295.785 13.027 294.207 14.605 292.262 14.605 290.312 14.605 288.734 13.027 288.734 11.078 288.734 9.133 290.312 7.555 292.262 7.555 294.207 7.555 295.785 9.133 295.785 11.078ZM295.785 11.078" fill-rule="evenodd"/>
<path transform="matrix(.58392,0,0,.58392,3.6519929,-51.50992)" stroke-width=".566929" stroke-linecap="butt" stroke-miterlimit="4" stroke-linejoin="miter" fill="none" stroke="#000000" d="M295.785 11.078C295.785 13.027 294.207 14.605 292.262 14.605 290.312 14.605 288.734 13.027 288.734 11.078 288.734 9.133 290.312 7.555 292.262 7.555 294.207 7.555 295.785 9.133 295.785 11.078ZM295.785 11.078"/>
</g>
</g>
<path transform="matrix(.58392,0,0,.58392,3.6519929,-51.50992)" stroke-width="1.70079" stroke-linecap="butt" stroke-miterlimit="4" stroke-linejoin="miter" fill="none" stroke="#000000" d="M316.18 46.465V10.723"/>
<path transform="matrix(0,.58392,-.58392,0,3.6519929,-51.50992)" d="M19.617-312.066 8.469-316.164 19.617-320.266C17.836-317.844 17.848-314.531 19.617-312.066ZM19.617-312.066" fill-rule="evenodd"/>
<path transform="matrix(0,.58392,-.58392,0,3.6519929,-51.50992)" stroke-width=".637796" stroke-linecap="butt" stroke-linejoin="round" fill="none" stroke="#000000" d="M19.617-312.066 8.469-316.164 19.617-320.266C17.836-317.844 17.848-314.531 19.617-312.066ZM19.617-312.066"/>
<g opacity=".98">
<g clip-path="url(#clip_29)">
<path transform="matrix(.58392,0,0,.58392,3.6519929,-51.50992)" d="M12.32 145.926C12.32 147.875 10.742 149.453 8.797 149.453 6.848 149.453 5.27 147.875 5.27 145.926 5.27 143.98 6.848 142.402 8.797 142.402 10.742 142.402 12.32 143.98 12.32 145.926ZM12.32 145.926" fill-rule="evenodd"/>
<path transform="matrix(.58392,0,0,.58392,3.6519929,-51.50992)" stroke-width=".566929" stroke-linecap="butt" stroke-miterlimit="4" stroke-linejoin="miter" fill="none" stroke="#000000" d="M12.32 145.926C12.32 147.875 10.742 149.453 8.797 149.453 6.848 149.453 5.27 147.875 5.27 145.926 5.27 143.98 6.848 142.402 8.797 142.402 10.742 142.402 12.32 143.98 12.32 145.926ZM12.32 145.926"/>
</g>
</g>
<g opacity=".98">
<g clip-path="url(#clip_30)">
<path transform="matrix(.58392,0,0,.58392,3.6519929,-51.50992)" d="M40.668 145.926C40.668 147.875 39.09 149.453 37.141 149.453 35.195 149.453 33.617 147.875 33.617 145.926 33.617 143.98 35.195 142.402 37.141 142.402 39.09 142.402 40.668 143.98 40.668 145.926ZM40.668 145.926" fill-rule="evenodd"/>
<path transform="matrix(.58392,0,0,.58392,3.6519929,-51.50992)" stroke-width=".566929" stroke-linecap="butt" stroke-miterlimit="4" stroke-linejoin="miter" fill="none" stroke="#000000" d="M40.668 145.926C40.668 147.875 39.09 149.453 37.141 149.453 35.195 149.453 33.617 147.875 33.617 145.926 33.617 143.98 35.195 142.402 37.141 142.402 39.09 142.402 40.668 143.98 40.668 145.926ZM40.668 145.926"/>
</g>
</g>
<g opacity=".98">
<g clip-path="url(#clip_31)">
<path transform="matrix(.58392,0,0,.58392,3.6519929,-51.50992)" d="M69.012 145.926C69.012 147.875 67.434 149.453 65.488 149.453 63.543 149.453 61.965 147.875 61.965 145.926 61.965 143.98 63.543 142.402 65.488 142.402 67.434 142.402 69.012 143.98 69.012 145.926ZM69.012 145.926" fill-rule="evenodd"/>
<path transform="matrix(.58392,0,0,.58392,3.6519929,-51.50992)" stroke-width=".566929" stroke-linecap="butt" stroke-miterlimit="4" stroke-linejoin="miter" fill="none" stroke="#000000" d="M69.012 145.926C69.012 147.875 67.434 149.453 65.488 149.453 63.543 149.453 61.965 147.875 61.965 145.926 61.965 143.98 63.543 142.402 65.488 142.402 67.434 142.402 69.012 143.98 69.012 145.926ZM69.012 145.926"/>
</g>
</g>
<g opacity=".98">
<g clip-path="url(#clip_32)">
<path transform="matrix(.58392,0,0,.58392,3.6519929,-51.50992)" d="M97.359 145.926C97.359 147.875 95.781 149.453 93.836 149.453 91.887 149.453 90.309 147.875 90.309 145.926 90.309 143.98 91.887 142.402 93.836 142.402 95.781 142.402 97.359 143.98 97.359 145.926ZM97.359 145.926" fill-rule="evenodd"/>
<path transform="matrix(.58392,0,0,.58392,3.6519929,-51.50992)" stroke-width=".566929" stroke-linecap="butt" stroke-miterlimit="4" stroke-linejoin="miter" fill="none" stroke="#000000" d="M97.359 145.926C97.359 147.875 95.781 149.453 93.836 149.453 91.887 149.453 90.309 147.875 90.309 145.926 90.309 143.98 91.887 142.402 93.836 142.402 95.781 142.402 97.359 143.98 97.359 145.926ZM97.359 145.926"/>
</g>
</g>
<g opacity=".98">
<g clip-path="url(#clip_33)">
<path transform="matrix(.58392,0,0,.58392,3.6519929,-51.50992)" d="M125.707 145.926C125.707 147.875 124.129 149.453 122.18 149.453 120.234 149.453 118.656 147.875 118.656 145.926 118.656 143.98 120.234 142.402 122.18 142.402 124.129 142.402 125.707 143.98 125.707 145.926ZM125.707 145.926" fill-rule="evenodd"/>
<path transform="matrix(.58392,0,0,.58392,3.6519929,-51.50992)" stroke-width=".566929" stroke-linecap="butt" stroke-miterlimit="4" stroke-linejoin="miter" fill="none" stroke="#000000" d="M125.707 145.926C125.707 147.875 124.129 149.453 122.18 149.453 120.234 149.453 118.656 147.875 118.656 145.926 118.656 143.98 120.234 142.402 122.18 142.402 124.129 142.402 125.707 143.98 125.707 145.926ZM125.707 145.926"/>
</g>
</g>
<g opacity=".98">
<g clip-path="url(#clip_34)">
<path transform="matrix(.58392,0,0,.58392,3.6519929,-51.50992)" d="M154.055 145.926C154.055 147.875 152.477 149.453 150.527 149.453 148.582 149.453 147.004 147.875 147.004 145.926 147.004 143.98 148.582 142.402 150.527 142.402 152.477 142.402 154.055 143.98 154.055 145.926ZM154.055 145.926" fill-rule="evenodd"/>
<path transform="matrix(.58392,0,0,.58392,3.6519929,-51.50992)" stroke-width=".566929" stroke-linecap="butt" stroke-miterlimit="4" stroke-linejoin="miter" fill="none" stroke="#000000" d="M154.055 145.926C154.055 147.875 152.477 149.453 150.527 149.453 148.582 149.453 147.004 147.875 147.004 145.926 147.004 143.98 148.582 142.402 150.527 142.402 152.477 142.402 154.055 143.98 154.055 145.926ZM154.055 145.926"/>
</g>
</g>
<g opacity=".98">
<g clip-path="url(#clip_35)">
<path transform="matrix(.58392,0,0,.58392,3.6519929,-51.50992)" d="M182.398 145.926C182.398 147.875 180.82 149.453 178.875 149.453 176.926 149.453 175.348 147.875 175.348 145.926 175.348 143.98 176.926 142.402 178.875 142.402 180.82 142.402 182.398 143.98 182.398 145.926ZM182.398 145.926" fill-rule="evenodd"/>
<path transform="matrix(.58392,0,0,.58392,3.6519929,-51.50992)" stroke-width=".566929" stroke-linecap="butt" stroke-miterlimit="4" stroke-linejoin="miter" fill="none" stroke="#000000" d="M182.398 145.926C182.398 147.875 180.82 149.453 178.875 149.453 176.926 149.453 175.348 147.875 175.348 145.926 175.348 143.98 176.926 142.402 178.875 142.402 180.82 142.402 182.398 143.98 182.398 145.926ZM182.398 145.926"/>
</g>
</g>
<g opacity=".98">
<g clip-path="url(#clip_36)">
<path transform="matrix(.58392,0,0,.58392,3.6519929,-51.50992)" d="M210.746 145.926C210.746 147.875 209.168 149.453 207.223 149.453 205.273 149.453 203.695 147.875 203.695 145.926 203.695 143.98 205.273 142.402 207.223 142.402 209.168 142.402 210.746 143.98 210.746 145.926ZM210.746 145.926" fill-rule="evenodd"/>
<path transform="matrix(.58392,0,0,.58392,3.6519929,-51.50992)" stroke-width=".566929" stroke-linecap="butt" stroke-miterlimit="4" stroke-linejoin="miter" fill="none" stroke="#000000" d="M210.746 145.926C210.746 147.875 209.168 149.453 207.223 149.453 205.273 149.453 203.695 147.875 203.695 145.926 203.695 143.98 205.273 142.402 207.223 142.402 209.168 142.402 210.746 143.98 210.746 145.926ZM210.746 145.926"/>
</g>
</g>
<g opacity=".98">
<g clip-path="url(#clip_37)">
<path transform="matrix(.58392,0,0,.58392,3.6519929,-51.50992)" d="M239.094 145.926C239.094 147.875 237.516 149.453 235.566 149.453 233.621 149.453 232.043 147.875 232.043 145.926 232.043 143.98 233.621 142.402 235.566 142.402 237.516 142.402 239.094 143.98 239.094 145.926ZM239.094 145.926" fill-rule="evenodd"/>
<path transform="matrix(.58392,0,0,.58392,3.6519929,-51.50992)" stroke-width=".566929" stroke-linecap="butt" stroke-miterlimit="4" stroke-linejoin="miter" fill="none" stroke="#000000" d="M239.094 145.926C239.094 147.875 237.516 149.453 235.566 149.453 233.621 149.453 232.043 147.875 232.043 145.926 232.043 143.98 233.621 142.402 235.566 142.402 237.516 142.402 239.094 143.98 239.094 145.926ZM239.094 145.926"/>
</g>
</g>
<g opacity=".98">
<g clip-path="url(#clip_38)">
<path transform="matrix(.58392,0,0,.58392,3.6519929,-51.50992)" d="M267.438 145.926C267.438 147.875 265.859 149.453 263.914 149.453 261.969 149.453 260.391 147.875 260.391 145.926 260.391 143.98 261.969 142.402 263.914 142.402 265.859 142.402 267.438 143.98 267.438 145.926ZM267.438 145.926" fill-rule="evenodd"/>
<path transform="matrix(.58392,0,0,.58392,3.6519929,-51.50992)" stroke-width=".566929" stroke-linecap="butt" stroke-miterlimit="4" stroke-linejoin="miter" fill="none" stroke="#000000" d="M267.438 145.926C267.438 147.875 265.859 149.453 263.914 149.453 261.969 149.453 260.391 147.875 260.391 145.926 260.391 143.98 261.969 142.402 263.914 142.402 265.859 142.402 267.438 143.98 267.438 145.926ZM267.438 145.926"/>
</g>
</g>
<g opacity=".98">
<g clip-path="url(#clip_39)">
<path transform="matrix(.58392,0,0,.58392,3.6519929,-51.50992)" d="M295.785 145.926C295.785 147.875 294.207 149.453 292.262 149.453 290.312 149.453 288.734 147.875 288.734 145.926 288.734 143.98 290.312 142.402 292.262 142.402 294.207 142.402 295.785 143.98 295.785 145.926ZM295.785 145.926" fill-rule="evenodd"/>
<path transform="matrix(.58392,0,0,.58392,3.6519929,-51.50992)" stroke-width=".566929" stroke-linecap="butt" stroke-miterlimit="4" stroke-linejoin="miter" fill="none" stroke="#000000" d="M295.785 145.926C295.785 147.875 294.207 149.453 292.262 149.453 290.312 149.453 288.734 147.875 288.734 145.926 288.734 143.98 290.312 142.402 292.262 142.402 294.207 142.402 295.785 143.98 295.785 145.926ZM295.785 145.926"/>
</g>
</g>
<g opacity=".98">
<g clip-path="url(#clip_40)">
<path transform="matrix(.58392,0,0,.58392,3.6519929,-51.50992)" d="M12.32 108.578C12.32 110.527 10.742 112.105 8.797 112.105 6.848 112.105 5.27 110.527 5.27 108.578 5.27 106.633 6.848 105.055 8.797 105.055 10.742 105.055 12.32 106.633 12.32 108.578ZM12.32 108.578" fill-rule="evenodd"/>
<path transform="matrix(.58392,0,0,.58392,3.6519929,-51.50992)" stroke-width=".566929" stroke-linecap="butt" stroke-miterlimit="4" stroke-linejoin="miter" fill="none" stroke="#000000" d="M12.32 108.578C12.32 110.527 10.742 112.105 8.797 112.105 6.848 112.105 5.27 110.527 5.27 108.578 5.27 106.633 6.848 105.055 8.797 105.055 10.742 105.055 12.32 106.633 12.32 108.578ZM12.32 108.578"/>
</g>
</g>
<g opacity=".98">
<g clip-path="url(#clip_41)">
<path transform="matrix(.58392,0,0,.58392,3.6519929,-51.50992)" d="M40.668 108.578C40.668 110.527 39.09 112.105 37.141 112.105 35.195 112.105 33.617 110.527 33.617 108.578 33.617 106.633 35.195 105.055 37.141 105.055 39.09 105.055 40.668 106.633 40.668 108.578ZM40.668 108.578" fill-rule="evenodd"/>
<path transform="matrix(.58392,0,0,.58392,3.6519929,-51.50992)" stroke-width=".566929" stroke-linecap="butt" stroke-miterlimit="4" stroke-linejoin="miter" fill="none" stroke="#000000" d="M40.668 108.578C40.668 110.527 39.09 112.105 37.141 112.105 35.195 112.105 33.617 110.527 33.617 108.578 33.617 106.633 35.195 105.055 37.141 105.055 39.09 105.055 40.668 106.633 40.668 108.578ZM40.668 108.578"/>
</g>
</g>
<g opacity=".98">
<g clip-path="url(#clip_42)">
<path transform="matrix(.58392,0,0,.58392,3.6519929,-51.50992)" d="M69.012 108.578C69.012 110.527 67.434 112.105 65.488 112.105 63.543 112.105 61.965 110.527 61.965 108.578 61.965 106.633 63.543 105.055 65.488 105.055 67.434 105.055 69.012 106.633 69.012 108.578ZM69.012 108.578" fill-rule="evenodd"/>
<path transform="matrix(.58392,0,0,.58392,3.6519929,-51.50992)" stroke-width=".566929" stroke-linecap="butt" stroke-miterlimit="4" stroke-linejoin="miter" fill="none" stroke="#000000" d="M69.012 108.578C69.012 110.527 67.434 112.105 65.488 112.105 63.543 112.105 61.965 110.527 61.965 108.578 61.965 106.633 63.543 105.055 65.488 105.055 67.434 105.055 69.012 106.633 69.012 108.578ZM69.012 108.578"/>
</g>
</g>
<g opacity=".98">
<g clip-path="url(#clip_43)">
<path transform="matrix(.58392,0,0,.58392,3.6519929,-51.50992)" d="M97.359 108.578C97.359 110.527 95.781 112.105 93.836 112.105 91.887 112.105 90.309 110.527 90.309 108.578 90.309 106.633 91.887 105.055 93.836 105.055 95.781 105.055 97.359 106.633 97.359 108.578ZM97.359 108.578" fill-rule="evenodd"/>
<path transform="matrix(.58392,0,0,.58392,3.6519929,-51.50992)" stroke-width=".566929" stroke-linecap="butt" stroke-miterlimit="4" stroke-linejoin="miter" fill="none" stroke="#000000" d="M97.359 108.578C97.359 110.527 95.781 112.105 93.836 112.105 91.887 112.105 90.309 110.527 90.309 108.578 90.309 106.633 91.887 105.055 93.836 105.055 95.781 105.055 97.359 106.633 97.359 108.578ZM97.359 108.578"/>
</g>
</g>
<g opacity=".98">
<g clip-path="url(#clip_44)">
<path transform="matrix(.58392,0,0,.58392,3.6519929,-51.50992)" d="M125.707 108.578C125.707 110.527 124.129 112.105 122.18 112.105 120.234 112.105 118.656 110.527 118.656 108.578 118.656 106.633 120.234 105.055 122.18 105.055 124.129 105.055 125.707 106.633 125.707 108.578ZM125.707 108.578" fill-rule="evenodd"/>
<path transform="matrix(.58392,0,0,.58392,3.6519929,-51.50992)" stroke-width=".566929" stroke-linecap="butt" stroke-miterlimit="4" stroke-linejoin="miter" fill="none" stroke="#000000" d="M125.707 108.578C125.707 110.527 124.129 112.105 122.18 112.105 120.234 112.105 118.656 110.527 118.656 108.578 118.656 106.633 120.234 105.055 122.18 105.055 124.129 105.055 125.707 106.633 125.707 108.578ZM125.707 108.578"/>
</g>
</g>
<g opacity=".98">
<g clip-path="url(#clip_45)">
<path transform="matrix(.58392,0,0,.58392,3.6519929,-51.50992)" d="M154.055 108.578C154.055 110.527 152.477 112.105 150.527 112.105 148.582 112.105 147.004 110.527 147.004 108.578 147.004 106.633 148.582 105.055 150.527 105.055 152.477 105.055 154.055 106.633 154.055 108.578ZM154.055 108.578" fill-rule="evenodd"/>
<path transform="matrix(.58392,0,0,.58392,3.6519929,-51.50992)" stroke-width=".566929" stroke-linecap="butt" stroke-miterlimit="4" stroke-linejoin="miter" fill="none" stroke="#000000" d="M154.055 108.578C154.055 110.527 152.477 112.105 150.527 112.105 148.582 112.105 147.004 110.527 147.004 108.578 147.004 106.633 148.582 105.055 150.527 105.055 152.477 105.055 154.055 106.633 154.055 108.578ZM154.055 108.578"/>
</g>
</g>
<g opacity=".98">
<g clip-path="url(#clip_46)">
<path transform="matrix(.58392,0,0,.58392,3.6519929,-51.50992)" d="M182.398 108.578C182.398 110.527 180.82 112.105 178.875 112.105 176.926 112.105 175.348 110.527 175.348 108.578 175.348 106.633 176.926 105.055 178.875 105.055 180.82 105.055 182.398 106.633 182.398 108.578ZM182.398 108.578" fill-rule="evenodd"/>
<path transform="matrix(.58392,0,0,.58392,3.6519929,-51.50992)" stroke-width=".566929" stroke-linecap="butt" stroke-miterlimit="4" stroke-linejoin="miter" fill="none" stroke="#000000" d="M182.398 108.578C182.398 110.527 180.82 112.105 178.875 112.105 176.926 112.105 175.348 110.527 175.348 108.578 175.348 106.633 176.926 105.055 178.875 105.055 180.82 105.055 182.398 106.633 182.398 108.578ZM182.398 108.578"/>
</g>
</g>
<g opacity=".98">
<g clip-path="url(#clip_47)">
<path transform="matrix(.58392,0,0,.58392,3.6519929,-51.50992)" d="M210.746 108.578C210.746 110.527 209.168 112.105 207.223 112.105 205.273 112.105 203.695 110.527 203.695 108.578 203.695 106.633 205.273 105.055 207.223 105.055 209.168 105.055 210.746 106.633 210.746 108.578ZM210.746 108.578" fill-rule="evenodd"/>
<path transform="matrix(.58392,0,0,.58392,3.6519929,-51.50992)" stroke-width=".566929" stroke-linecap="butt" stroke-miterlimit="4" stroke-linejoin="miter" fill="none" stroke="#000000" d="M210.746 108.578C210.746 110.527 209.168 112.105 207.223 112.105 205.273 112.105 203.695 110.527 203.695 108.578 203.695 106.633 205.273 105.055 207.223 105.055 209.168 105.055 210.746 106.633 210.746 108.578ZM210.746 108.578"/>
</g>
</g>
<g opacity=".98">
<g clip-path="url(#clip_48)">
<path transform="matrix(.58392,0,0,.58392,3.6519929,-51.50992)" d="M239.094 108.578C239.094 110.527 237.516 112.105 235.566 112.105 233.621 112.105 232.043 110.527 232.043 108.578 232.043 106.633 233.621 105.055 235.566 105.055 237.516 105.055 239.094 106.633 239.094 108.578ZM239.094 108.578" fill-rule="evenodd"/>
<path transform="matrix(.58392,0,0,.58392,3.6519929,-51.50992)" stroke-width=".566929" stroke-linecap="butt" stroke-miterlimit="4" stroke-linejoin="miter" fill="none" stroke="#000000" d="M239.094 108.578C239.094 110.527 237.516 112.105 235.566 112.105 233.621 112.105 232.043 110.527 232.043 108.578 232.043 106.633 233.621 105.055 235.566 105.055 237.516 105.055 239.094 106.633 239.094 108.578ZM239.094 108.578"/>
</g>
</g>
<g opacity=".98">
<g clip-path="url(#clip_49)">
<path transform="matrix(.58392,0,0,.58392,3.6519929,-51.50992)" d="M267.438 108.578C267.438 110.527 265.859 112.105 263.914 112.105 261.969 112.105 260.391 110.527 260.391 108.578 260.391 106.633 261.969 105.055 263.914 105.055 265.859 105.055 267.438 106.633 267.438 108.578ZM267.438 108.578" fill-rule="evenodd"/>
<path transform="matrix(.58392,0,0,.58392,3.6519929,-51.50992)" stroke-width=".566929" stroke-linecap="butt" stroke-miterlimit="4" stroke-linejoin="miter" fill="none" stroke="#000000" d="M267.438 108.578C267.438 110.527 265.859 112.105 263.914 112.105 261.969 112.105 260.391 110.527 260.391 108.578 260.391 106.633 261.969 105.055 263.914 105.055 265.859 105.055 267.438 106.633 267.438 108.578ZM267.438 108.578"/>
</g>
</g>
<g opacity=".98">
<g clip-path="url(#clip_50)">
<path transform="matrix(.58392,0,0,.58392,3.6519929,-51.50992)" d="M295.785 108.578C295.785 110.527 294.207 112.105 292.262 112.105 290.312 112.105 288.734 110.527 288.734 108.578 288.734 106.633 290.312 105.055 292.262 105.055 294.207 105.055 295.785 106.633 295.785 108.578ZM295.785 108.578" fill-rule="evenodd"/>
<path transform="matrix(.58392,0,0,.58392,3.6519929,-51.50992)" stroke-width=".566929" stroke-linecap="butt" stroke-miterlimit="4" stroke-linejoin="miter" fill="none" stroke="#000000" d="M295.785 108.578C295.785 110.527 294.207 112.105 292.262 112.105 290.312 112.105 288.734 110.527 288.734 108.578 288.734 106.633 290.312 105.055 292.262 105.055 294.207 105.055 295.785 106.633 295.785 108.578ZM295.785 108.578"/>
</g>
</g>
<path transform="matrix(.58392,0,0,.58392,3.6519929,-51.50992)" stroke-width="1.70079" stroke-linecap="butt" stroke-miterlimit="4" stroke-linejoin="miter" fill="none" stroke="#000000" d="M316.18 143.965V108.223"/>
<path transform="matrix(0,.58392,-.58392,0,3.6519929,-51.50992)" d="M117.117-312.066 105.969-316.164 117.117-320.266C115.336-317.844 115.348-314.531 117.117-312.066ZM117.117-312.066" fill-rule="evenodd"/>
<path transform="matrix(0,.58392,-.58392,0,3.6519929,-51.50992)" stroke-width=".637796" stroke-linecap="butt" stroke-linejoin="round" fill="none" stroke="#000000" d="M117.117-312.066 105.969-316.164 117.117-320.266C115.336-317.844 115.348-314.531 117.117-312.066ZM117.117-312.066"/>
</g>
</g>
<text xml:space="preserve" transform="matrix(1 0 -0 1 -208.75 669.79)" font-size="10.9091" font-family="LMMathItalic10" font-style="italic"><tspan y="-678.817" x="300.384">x</tspan><tspan y="-723.744" x="294.768">&#x03b1;</tspan></text>
<text xml:space="preserve" transform="matrix(1 0 -0 1 -208.75 669.79)" font-size="10.9091" font-family="LMRoman10"><tspan y="-723.744" x="301.78703">(</tspan></text>
<text xml:space="preserve" transform="matrix(1 0 -0 1 -208.75 669.79)" font-size="10.9091" font-family="LMMathItalic10" font-style="italic"><tspan y="-723.744" x="306.03004">x</tspan></text>
<text xml:space="preserve" transform="matrix(1 0 -0 1 -208.75 669.79)" font-size="10.9091" font-family="LMRoman10"><tspan y="-723.744" x="312.265">)</tspan></text>
<text xml:space="preserve" transform="matrix(1 0 -0 1 -208.75 669.79)" font-size="10.9091" font-family="LMMathItalic10" font-style="italic"><tspan y="-703.15206" x="403.342">&#x03b1;</tspan><tspan y="-645.1221" x="403.342">&#x03b1;</tspan></text>
<text xml:space="preserve" transform="matrix(1 0 -0 1 -208.75 669.79)" font-size="10.9091" font-family="LMRoman10"><tspan y="-645.1221" x="410.36103">[</tspan></text>
<text xml:space="preserve" transform="matrix(1 0 -0 1 -208.75 669.79)" font-size="10.9091" font-family="LMMathItalic10" font-style="italic"><tspan y="-645.1221" x="413.446">t</tspan></text>
<text xml:space="preserve" transform="matrix(1 0 -0 1 -208.75 669.79)" font-size="10.9091" font-family="LMRoman10"><tspan y="-645.1221" x="417.385">]</tspan></text>
<text xml:space="preserve" transform="matrix(1.0099504 0 -0 .99014756 -208.75 669.79)" font-size="11.017651" font-family="LMRoman10"><tspan y="-616.77578" x="71.290637 78.48515 81.548069 87.05689 93.18271 97.501628 106.48101 111.98983 120.814968 124.79234 127.85525 130.91815 137.04396 141.39595 145.68181 150.00072 155.50955 159.79541 162.85832 168.36714 178.56949 184.07833 191.53728 197.04611 207.24846 212.75728 218.88309 223.16896 228.67778 237.85549 243.36432 247.68325 253.80907 259.93489 262.99778 267.34974">Figure1:Illustrationofanautomorphism</tspan></text>
<text xml:space="preserve" transform="matrix(1 0 -0 1 -208.75 669.79)" font-size="10.9091" font-family="LMMathItalic10" font-style="italic"><tspan y="-610.699" x="283.319">&#x03b1;</tspan></text>
<text xml:space="preserve" transform="matrix(1.0099504 0 -0 .99014756 -208.75 669.79)" font-size="11.017651" font-family="LMRoman10"><tspan y="-616.77578" x="291.55693 299.51167 302.57456 306.86045 317.06278 322.5716 332.78498 338.2938 344.41963 350.5454 354.86436 360.07569 365.893 368.9559 378.1336 383.64244 387.92829 396.90769 399.97059 403.03349 408.5423 414.37065 418.6565 423.55937 429.06819 435.19398 444.17335 448.45924 453.96806 464.17039 472.43363 479.31968 486.82267 495.0859 499.3718 506.52226 515.1711 518.234 523.7428 528.6456">withanapproximatelightcone(anALPU).Given</tspan></text>
<text xml:space="preserve" transform="matrix(.99949988 0 -0 1.0005003 -208.75 669.79)" font-size="10.903644" font-family="LMRoman10"><tspan y="-596.85147" x="72.03603 76.34297 82.4054 86.95222 96.65646 102.108287">suchan</tspan></text>
<text xml:space="preserve" transform="matrix(1 0 -0 1 -208.75 669.79)" font-size="10.9091" font-family="LMMathItalic10" font-style="italic"><tspan y="-597.15" x="111.717">&#x03b1;</tspan></text>
<text xml:space="preserve" transform="matrix(.99949988 0 -0 1.0005003 -208.75 669.79)" font-size="10.903644" font-family="LMRoman10"><tspan y="-596.85147" x="118.79542 125.45754 131.51996 137.27709 142.12921 150.07798 154.31949 160.3819 165.23403 169.50827 177.99132 182.84345 188.60056 191.63178 195.9387 203.81114 212.89389 217.74602 223.19785 228.96587 233.20738 236.23859 241.99571 248.05812 253.50995 259.57237 267.51023 273.57264 279.32975 285.39219 290.844 299.92674 302.95796 307.81007">,doesthereexistacontinuousdynamics</tspan></text>
<text xml:space="preserve" transform="matrix(1 0 -0 1 -208.75 669.79)" font-size="10.9091" font-family="LMMathItalic10" font-style="italic"><tspan y="-597.15" x="315.479">&#x03b1;</tspan></text>
<text xml:space="preserve" transform="matrix(.99949988 0 -0 1.0005003 -208.75 669.79)" font-size="10.903644" font-family="LMRoman10"><tspan y="-596.85147" x="322.65937">[</tspan></text>
<text xml:space="preserve" transform="matrix(1 0 -0 1 -208.75 669.79)" font-size="10.9091" font-family="LMMathItalic10" font-style="italic"><tspan y="-597.15" x="325.58">t</tspan></text>
<text xml:space="preserve" transform="matrix(.99949988 0 -0 1.0005003 -208.75 669.79)" font-size="10.903644" font-family="LMRoman10"><tspan y="-596.85147" x="329.68394">]</tspan></text>
<text xml:space="preserve" transform="matrix(.99949988 0 -0 1.0005003 -208.75 669.79)" font-size="10.903644" font-family="LMRoman10"><tspan y="-596.85147" x="336.34724 344.21968 347.2509 351.4924">with</tspan></text>
<text xml:space="preserve" transform="matrix(1 0 -0 1 -208.75 669.79)" font-size="10.9091" font-family="LMMathItalic10" font-style="italic"><tspan y="-597.15" x="361.003">&#x03b1;</tspan></text>
<text xml:space="preserve" transform="matrix(.99949988 0 -0 1.0005003 -208.75 669.79)" font-size="10.903644" font-family="LMRoman10"><tspan y="-596.85147" x="368.20518 371.29093 376.74275 382.80516">[0]=</tspan></text>
<text xml:space="preserve" transform="matrix(1 0 -0 1 -208.75 669.79)" font-size="10.9091" font-family="LMRoman10"><tspan y="-597.15" x="394.117 397.14973">id</tspan></text>
<text xml:space="preserve" transform="matrix(.99949988 0 -0 1.0005003 -208.75 669.79)" font-size="10.903644" font-family="LMRoman10"><tspan y="-596.85147" x="407.0436 412.49543 418.55784">and</tspan></text>
<text xml:space="preserve" transform="matrix(1 0 -0 1 -208.75 669.79)" font-size="10.9091" font-family="LMMathItalic10" font-style="italic"><tspan y="-597.15" x="428.031">&#x03b1;</tspan></text>
<text xml:space="preserve" transform="matrix(.99949988 0 -0 1.0005003 -208.75 669.79)" font-size="10.903644" font-family="LMRoman10"><tspan y="-596.85147" x="435.2677 438.35346 443.80528 449.86769">[1]=</tspan></text>
<text xml:space="preserve" transform="matrix(1 0 -0 1 -208.75 669.79)" font-size="10.9091" font-family="LMMathItalic10" font-style="italic"><tspan y="-597.15" x="461.145">&#x03b1;</tspan></text>
<text xml:space="preserve" transform="matrix(.99949988 0 -0 1.0005003 -208.75 669.79)" font-size="10.903644" font-family="LMRoman10"><tspan y="-596.85147" x="472.0331 479.90556 485.96797 488.99919 493.546 503.2502 507.51356 512.36569 521.44839 526.9002 529.93148 535.9939">whichremains</tspan></text>
<text xml:space="preserve" transform="matrix(1 0 -0 1 -208.75 669.79)" font-size="10.9091" font-family="LMRoman10"><tspan y="-583.6" x="72 77.45455 83.52001 89.58547 93.86184 99.01093 104.770938 107.803668 116.890949 122.3455 126.589138 131.44368 134.47641 143.88007 146.90189 152.66188 157.51644 162.97098 169.64736 175.1019 182.97827 188.43282 191.46555 198.13101 202.37465 205.40738 214.49466 219.34922 223.65831">approximatelylocalatalltimes?</tspan></text>
<text xml:space="preserve" transform="matrix(.99146357 0 -0 1.00861 -208.75 669.79)" font-size="10.815974" font-family="LMRoman10"><tspan y="-543.96749" x="72.61992 78.633609 81.64044 87.94616 92.75926 96.99912 101.812229 107.52306 115.40792 123.89846 132.01044 140.12242 154.9295 157.92552 163.95003 169.9637 174.77681 184.16507 193.17478 196.18163 201.5896 207.30043 215.18527 219.45758 223.665 226.67183 229.67867 236.37377 242.69029 251.18083 255.99393 261.40193 267.41563 273.4293 278.2424 283.05555 287.26295 292.07609 301.778 307.47804 316.8771 325.96253 330.23484 334.44227 338.68214 344.0901 350.1038 355.51176 358.5186 367.9177 372.7308 378.1388 383.8388 388.04624 391.05308 396.76393 402.7776 408.18556 414.19926 422.1598 428.1735 433.58146 437.78889 447.47999 451.6874 457.70109 461.94096 467.34895 473.3626 478.7706 488.47254 492.67997 498.69364 507.18418 511.45649 517.4702 522.8782 527.6913 536.1926 541.6006">di&#xfb00;erentGNVWindexmightstillbeconnectedbyastronglycontinuouspaththroughthespaceof</tspan></text>
<text xml:space="preserve" transform="matrix(1.006479 0 -0 .99356278 -208.75 669.79)" font-size="10.979779" font-family="LMRoman10"><tspan y="-538.56887" x="71.13511 79.36995 86.23231 93.70954 101.944377 109.88276 117.81016 120.86254 125.13367 134.82881 139.16582 144.6557 153.80187 162.28923 168.394 172.69806 177.58408 181.92108 186.80709 191.11116 194.16355 200.56476 205.45076 215.15689 219.42803 224.91791 227.97029 231.02268 235.35968 243.2212 251.45606 257.5608 263.0507 267.3218 273.42658 278.3126 286.21803 291.10404 296.5939 302.69868 307.5847 312.45973 316.7638 326.4699 329.52229 337.46067 345.38807 351.49284 356.37886 360.64997 366.75474 371.64073 379.5352 383.80635 389.91108 398.39848 403.88835 408.77436 414.87913 419.7651 424.0692 429.55909 432.61146 435.66383 440.54985 445.42488 455.13099 458.18336 464.28813 470.39289 475.27888 484.67756 492.29753 497.7874 503.89219 506.94456 516.65066 520.9218 526.4117 531.90158">ALPUswithsomeprescribedtails.Anotherconcerniswhetherthegeneralizedindexwouldtake</tspan></text>
<text xml:space="preserve" transform="matrix(.9899495 0 -0 1.0101526 -208.75 669.79)" font-size="10.799458" font-family="LMRoman10"><tspan y="-516.31106" x="72.4441 77.53064 82.930377 85.932628 91.93712 96.74288 104.69129 107.69354 117.38065 121.58164 127.58614 136.07451 140.3403 145.74004 154.73598 163.22435 169.22885 172.23111 176.49689 181.30266 185.53604 190.3418 194.54279 203.03116 207.29695 212.10272 219.97553 225.37526 233.32366 237.52465 243.52915 252.01752 260.4951 268.5947 276.69429 291.47874 294.481 300.4855 306.49 311.29576 316.99787 324.92466 332.87309 337.67884 340.68107 346.0808 350.28178 355.08753 361.092 364.09428 368.87846 375.5633 383.04734 391.53569 396.93544 401.20118 410.5859 418.38313 424.38764 429.19337 433.39436 439.39884 444.2046 452.12059 456.92634 462.31526 467.121 471.35438 480.7391 488.83869 495.58836 502.94279 514.725 519.53079 524.9305 534.6176 540.9245">valuesinthesamediscretesetastheGNVWindex.Relatedly,weaskwhethereveryALPUcanbe</tspan><tspan y="-502.89826" x="72.73098 78.13071 84.13521 90.13971 94.37309 99.470439 105.172557 108.174808 117.170749 122.57048 126.77147 131.57723 141.15636 145.35735 154.3317 159.73142 163.96482 169.96932 172.97156 177.17255 181.40595 186.80567 191.03907 200.32659 205.72632 210.53208 215.33783 221.34233 225.57573 230.97545 235.78122">approximatedtoarbitraryaccuracy</tspan></text>
<text xml:space="preserve" transform="matrix(1 0 -0 1 -208.75 669.79)" font-size="10.9091" font-family="LMMathItalic10" font-style="italic"><tspan y="-508.004" x="242.519">&#x03b4;</tspan></text>
<text xml:space="preserve" transform="matrix(.9899495 0 -0 1.0101526 -208.75 669.79)" font-size="10.799458" font-family="LMRoman10"><tspan y="-502.89826" x="253.87354 259.57566 268.8524 277.82673 286.2287 294.0259 305.7109 313.50813 319.51264 324.91236 329.17814 337.5585 341.79188 347.1916 353.1961 356.19837 362.20286 370.05406 376.05854 381.76066 386.5664 394.4068 400.4113 405.81105 413.5974 418.99714 423.2305 428.31709 439.69969 443.90068 449.60279 458.57713 461.88179 467.2815 471.54728 479.33366 487.13087 490.13313 494.33409">byaQCAwhoseradiusdoesnotgrowtoofastwith</tspan></text>
<text xml:space="preserve" transform="matrix(1 0 -0 1 -208.75 669.79)" font-size="10.9091" font-family="LMMathItalic10" font-style="italic"><tspan y="-508.004" x="498.761">&#x03b4;</tspan></text>
<text xml:space="preserve" transform="matrix(.9899495 0 -0 1.0101526 -208.75 669.79)" font-size="10.799458" font-family="LMRoman10"><tspan y="-502.89826" x="509.13908 517.01187 520.91049 530.4896 534.69058 540.69509">.Inthe</tspan></text>
<text xml:space="preserve" transform="matrix(.9939819 0 -0 1.0060546 -208.75 669.79)" font-size="10.843447" font-family="LMRoman10"><tspan y="-491.47926" x="72.43593 76.719089 83.05166 87.877 92.70233 95.71681 101.13853 107.81809 112.643428 118.06515 122.34831 130.83873 136.26045 143.24364 151.37624 156.79796 165.83055 168.84503 171.85951 176.0776 181.49935 187.52829 190.54277 195.96451 205.65856 210.48389 215.90561 221.32735 224.34183 230.37079 234.58889 237.60337 243.02509 249.05405 253.3372 260.02763 266.80476 269.81925 274.63374 280.67353 284.2844 292.26518 297.6869 303.71586 306.73033 312.75929 317.04246 322.46418 328.49314 332.104 336.0185 341.74385 348.07643 356.56684 361.39219 365.67533 369.89344 372.90794 381.94053 387.36225 391.58036 396.40568 404.35395 409.77568 412.79014 415.80464 420.92274 432.4168 437.83854 443.8675 452.3579 456.57603 465.66285 471.08457 477.11354 483.1425 487.3931 492.5112 498.23658 501.25105 510.28364 515.7054 519.92349 528.4138 532.6319 538.6608">specialcaseofHamiltonianevolutions,Lieb-Robinson-typeestimatesallowonetoapproximatethe</tspan></text>
<text xml:space="preserve" transform="matrix(1.0034939 0 -0 .99651828 -208.75 669.79)" font-size="10.947215" font-family="LMRoman10"><tspan y="-482.58525" x="71.74931 76.62083 82.09444 87.56804 90.61136 96.69801 100.95648 103.99981 109.47341 119.183589 124.963718 134.35642 143.44261 147.76677 152.02524 156.31655 159.35987 164.23139 168.48986 171.53318 180.92588 183.9692 189.74933 194.62084 200.09445 206.75035 212.53047 218.61713 224.09073 229.87087 234.12934 240.22693 252.95853 257.83003 260.87336 265.16468 270.03617 276.1228 279.16615 287.0372">evolutionbyastrictlylocalquantumcircuit[</tspan></text>
<text xml:space="preserve" transform="matrix(1 0 -0 1 -208.75 669.79)" font-size="10.9091" font-family="LMRoman10"><tspan y="-480.905" x="290.98 296.43458">21</tspan></text>
<text xml:space="preserve" transform="matrix(1.0034939 0 -0 .99651828 -208.75 669.79)" font-size="10.947215" font-family="LMRoman10"><tspan y="-482.58525" x="300.83793">,</tspan></text>
<text xml:space="preserve" transform="matrix(1 0 -0 1 -208.75 669.79)" font-size="10.9091" font-family="LMRoman10"><tspan y="-480.905" x="308.568 314.02256">22</tspan></text>
<text xml:space="preserve" transform="matrix(1.0034939 0 -0 .99651828 -208.75 669.79)" font-size="10.947215" font-family="LMRoman10"><tspan y="-482.58525" x="318.36466 321.40797 328.06388 333.5375 341.47425 344.51759 354.22776 360.3144 363.35774 368.83134 371.87467 376.13313 381.60673 388.26264 394.0428 400.12944 405.60304 411.38316 415.64164 421.72828 434.45988 438.78404 441.82737 450.65083 456.73747 459.78077 465.2544 469.51286 472.55619 478.0298 484.11643 491.98747 502.33259 510.81663 519.93569 522.97897 528.4526 534.24368">],asindigitalquantumsimulation.Wemight</tspan></text>
<text xml:space="preserve" transform="matrix(1.0099504 0 -0 .99014756 -208.75 669.79)" font-size="11.017651" font-family="LMRoman10"><tspan y="-472.0064" x="71.290637 77.41644 82.92527 89.348567 97.898258 101.26965 106.77849 114.73323 123.88889 128.24086 131.30377 140.48148 143.54439 146.60729 152.11612 160.07085 166.19667 169.25957 173.61154 178.5144 182.83333 187.73619 192.02205 195.08495 199.98781 205.49665 209.7825 212.84542 218.35424 228.1269 233.63573 241.59047 248.64179 252.9607 258.4695 262.7554 267.04127 271.9441 276.26304 279.32597 284.2288 289.7376 294.02348 297.0864 302.5952 312.36787 318.49369 322.81263 328.6189 333.52177 338.4246 344.5504 350.67625 354.99516 363.5338 366.9052 372.41404 380.37983 385.8886 390.20756 396.33338 399.39628 403.68217 408.0011 413.5099 417.82884 427.28199 435.54524 442.43125 449.93428 458.1975 462.54948 469.2702 474.77903 482.7338 488.24259 496.17533 499.23823 504.14109 509.64994 514.0019 521.9235 525.295 530.80386">hopeforasimilardiscretizationorTrotterizationprocedureforarbitraryALPUs,oratleastfor</tspan></text>
<text xml:space="preserve" transform="matrix(1 0 -0 1 -208.75 669.79)" font-size="10.9091" font-family="LMRoman10"><tspan y="-453.807" x="72 75.03273 81.09819 87.16365 92.0182 97.778209 101.410938 110.498218 118.9855 126.86187 135.0437 139.3528">index-0QCAs.</tspan></text>
<text xml:space="preserve" transform="matrix(1.0099504 0 -0 .99014756 -208.75 669.79)" font-size="11.017651" font-family="LMRoman10"><tspan y="-444.6388" x="88.05977 96.01451 102.14033 107.043178 111.39516 119.90077 125.718097 131.8439 136.74677 141.09874 145.3846 148.44751 153.95635 160.08216 168.03691 173.54573 177.86466 186.37029 190.68921 195.59207 200.49494 206.00376 211.51259 217.6384 220.70131 225.60417 230.50702 240.23561 243.29853 253.02712 257.92997 263.74729 266.81019 271.16215 275.44804 278.51094 284.63676 293.74833 296.81123 299.87416 304.16 309.06288 313.3818 318.8906 323.17649 329.3023 333.62123 338.52409 346.3907 350.36805 360.09663 363.46803 368.97685 373.87968 378.16557 384.8312 390.34004 396.46586 404.97145 410.48027 417.4544 421.7403 427.8661 436.3717 445.5494 451.05824 454.12113 463.8497 469.35853 475.7818 480.68467 490.41325 496.23057 502.35639 507.25923 511.61119 515.89706 518.9599 524.46878 530.5946">Thesequestionsarerecognizedinexistingliterature.Infact,oneofthemainopenquestions</tspan></text>
<text xml:space="preserve" transform="matrix(1.0049875 0 -0 .9950372 -208.75 669.79)" font-size="10.96351" font-family="LMRoman10"><tspan y="-428.83729" x="71.642688 74.690547 84.40421 88.66902 94.76473 103.25049 108.73224 113.02994 116.07779 121.55955 124.60741 130.70313 136.18488 142.83974 150.45938 155.94115 160.23885 169.63459">intheoriginalwork[</tspan></text>
<text xml:space="preserve" transform="matrix(1 0 -0 1 -208.75 669.79)" font-size="10.9091" font-family="LMRoman10"><tspan y="-426.709" x="173.508">6</tspan></text>
<text xml:space="preserve" transform="matrix(1.0049875 0 -0 .9950372 -208.75 669.79)" font-size="10.96351" font-family="LMRoman10"><tspan y="-428.83729" x="178.07387 184.72873 192.34839 197.83014 205.77869 211.87439 217.04918 228.5828 232.8476 241.93636 246.81511 252.60385 256.86866 261.74745 267.84318 277.55686 281.82167 287.9174 296.40318 299.45103 305.54676 311.6425 316.52125 325.92796 330.19276 336.28849 341.16728 346.64903 350.9467 360.3424 364.6072 373.70695 378.0375 383.51927 392.6519 401.13768 406.01643 409.06428 414.54603 418.87663 426.82518 432.30693 439.2687 444.75047 450.8462 455.111 460.59275 469.72538 475.20713 479.5048 485.60054 491.69627 494.7441 499.07469 508.2073 516.1558 524.0715 527.1193 531.3841">]washowtoextendtheindextheorytosomeclassofautomorphismswith</tspan></text>
<text xml:space="preserve" transform="matrix(.9924717 0 -0 1.0075854 -208.75 669.79)" font-size="10.826972" font-family="LMRoman10"><tspan y="-410.0486" x="72.54615 77.95964 83.97944 86.989337 96.37632 101.78981 107.80961 113.84023 118.084407 123.183917 128.90056 131.91045 140.92932 146.3428 150.5545 159.05368 162.06359 167.78023 172.59824 178.0117 181.0216 184.03153 187.94007 192.7364 200.66176 207.42862 212.8421 217.0538 221.87181 229.78633 237.30025 242.71373 246.9579 256.3557 261.7692 266.04585 271.44853 276.2665 285.9675 290.24415 296.56709 301.3851 306.2031 309.213 315.23283 320.0508 325.46434 328.4742 331.48414 340.87113 348.6882 354.708 359.52604 363.73774 369.75755 374.57554 382.50086 390.6211 397.38798 404.7611 412.88139 420.82835 425.64637 431.05986 437.07966 440.08958 449.79054 456.11347 464.6018 470.01533 476.03514 482.05494 486.2991 491.40946 497.1261 500.136 509.15486 514.56838 518.78 523.5981 533.299 539.0048">onlyapproximatelocality.Laterworkaskedspeci&#xfb01;callywhetherALPUscouldbeapproximatedby</tspan></text>
<text xml:space="preserve" transform="matrix(.995992 0 -0 1.0040242 -208.75 669.79)" font-size="10.8653759" font-family="LMRoman10"><tspan y="-398.00837" x="72.28974 80.743 88.58781 96.73684 104.67942">QCAs[</tspan></text>
<text xml:space="preserve" transform="matrix(1 0 -0 1 -208.75 669.79)" font-size="10.9091" font-family="LMRoman10"><tspan y="-399.61" x="107.264 112.71855">23</tspan></text>
<text xml:space="preserve" transform="matrix(.995992 0 -0 1.0040242 -208.75 669.79)" font-size="10.8653759" font-family="LMRoman10"><tspan y="-398.00837" x="118.648548 121.66912 129.56826 133.49065 143.19344 147.42006 153.46121 161.94709 166.2063 171.0414 176.77832 179.7989 184.634 196.12957">].Inthereview[</tspan></text>
<text xml:space="preserve" transform="matrix(1 0 -0 1 -208.75 669.79)" font-size="10.9091" font-family="LMRoman10"><tspan y="-399.61" x="198.315 203.76955">19</tspan></text>
<text xml:space="preserve" transform="matrix(.995992 0 -0 1.0040242 -208.75 669.79)" font-size="10.8653759" font-family="LMRoman10"><tspan y="-398.00837" x="210.06595 216.73729 221.02913 227.07027 231.60115 241.30393 247.04085 253.082 257.91709 262.20893 266.43556 269.45613 274.8888 280.92997 288.87257 296.41313 301.2482 305.50746 314.00416 318.26338 323.69609 326.7166 331.00846 335.84355 345.53547 350.96815 356.40086 361.83354 364.8541 370.89524 377.5666 383.6186 386.6283 392.06098 398.113 401.13359 404.14326 409.57597 415.32374 419.55039 422.56007 428.6121 437.69557 441.92219 447.96333 452.7984 455.81898 463.72898 467.9882 472.82328 475.84385 480.67893 485.80738 491.24009 497.28123 502.1163 510.60218 513.93789 519.3597 527.2805 531.5072 537.5483">]suchquestionswereraisedagain,highlightingtheirrelevanceforthe</tspan></text>
<text xml:space="preserve" transform="matrix(.99548986 0 -0 1.0045307 -208.75 669.79)" font-size="10.859898" font-family="LMRoman10"><tspan y="-384.31977" x="72.3262 77.75615 83.79425 89.83235 92.8514 95.87045 100.70311 106.13306 110.35755 113.3766 118.80654 128.50444 133.93439 140.90642 143.92548 149.96356 156.01253 160.83432 170.22812 174.45262 180.49073 185.32337 190.75331 195.01039 204.4042 208.6287 217.70757 223.13751 227.97016 232.19466 238.23276 243.6627 250.34154 256.37965 262.11366 267.8477 272.13734 275.1564 279.98905 285.41899 292.0978 296.38749 302.12153 306.4112 310.63569 315.46833 324.51463 328.8043 336.69944 344.84437 352.79383 358.22377 367.92164 372.75428 378.4883 383.91825 392.96455 399.00267 402.0217 406.85435 413.53318 417.75767 423.79579 432.27735 440.80238 448.9473 457.09223 471.91596 474.935 480.9731 487.0112 491.84385 501.23768 507.27577 512.7057 520.6442 526.98648 531.8191 536.65176">applicationofindextheorytoactualphysicalsystems.Asanexample,theGNVWindexhasbeen</tspan></text>
<text xml:space="preserve" transform="matrix(.995992 0 -0 1.0040242 -208.75 669.79)" font-size="10.8653759" font-family="LMRoman10"><tspan y="-371.01899" x="72.28974 78.33089 82.59012 88.022808 94.36818 99.800868 104.09269 108.92778 118.6197 122.84633 131.92978 136.76488 139.78545 145.21814 149.50998 153.8018 156.82238 160.14719 169.53488 173.45728 180.99785 186.43054 190.0487 196.08986 199.11043 208.1613 212.9964 219.03754 223.32938 226.34995 231.78264 237.82379 243.25649 249.92783 258.9787 264.41139 270.14833 275.88523 279.50343 285.8488 291.5857 297.62687 307.01457 310.0351 315.77204 320.60713 326.0398 329.0495 332.07005 336.90513 341.7402 351.43214 358.52723 361.5478 367.2847 373.02165 379.06278 383.89787 391.77528 397.8164 403.85758 409.29026 413.5821 418.41719 422.70899 429.38035 435.11726 444.50495 449.34004 454.7727 463.82359 469.86476 475.90589 480.1325 483.15309 489.1942 498.27769 502.5043 508.54548 517.0313 520.0519 526.093 532.13418 536.96926">proposedtoclassifytwo-dimensionalmany-bodylocalizedFloquetphases,bycomputingtheindex</tspan></text>
<text xml:space="preserve" transform="matrix(.9899495 0 -0 1.0101526 -208.75 669.79)" font-size="10.799458" font-family="LMRoman10"><tspan y="-355.35523" x="72.73098 78.13071 84.739978 93.43354 98.239299 103.04506 107.27845 111.47944 116.879169 119.88142 129.19055 135.19506 140.89717 146.90167 152.3014 161.29735 164.29959 169.10536 176.67578 180.87677 186.88127 192.281 199.77582 205.17555 209.40894 212.4112 216.67697 221.48274 229.05316 234.4529 243.76203 247.96302 253.96752 262.0671 268.3848 273.78453 279.78904 285.79353 291.798 297.19776 301.43113 310.4271 315.8268 322.4361 326.63706 332.64158 340.75196 345.0177 350.71983 354.9856 359.18659 363.9923 376.28215">ofacertaindynamicsthatarisesontheboundaryofthesystem[</tspan></text>
<text xml:space="preserve" transform="matrix(1 0 -0 1 -208.75 669.79)" font-size="10.9091" font-family="LMRoman10"><tspan y="-358.963" x="375.312">4</tspan></text>
<text xml:space="preserve" transform="matrix(.9899495 0 -0 1.0101526 -208.75 669.79)" font-size="10.799458" font-family="LMRoman10"><tspan y="-355.35523" x="384.63273 387.63499 395.41056 401.41508 407.41957 411.92295 421.22129 427.22578 432.9279 438.9324 444.33213 453.3281 456.33033 461.13609 468.70649 474.1062 478.3396 486.44999 490.33778 496.0399 502.04438 505.04664 509.8524 515.25216 518.25436 521.25656 530.26327 536.26779 541.6675">].Suchdynamicsaretypicallynot</tspan><tspan y="-341.94139" x="72.73098 76.996768 81.197757 85.431148 88.433399 93.23916 97.44015 100.4424 109.70833 112.71058 118.41269 123.21845 128.61818 131.62044 138.2081 143.60782 149.61232 159.18065 162.18289 171.7512 177.7557 182.56148 187.36724 191.56822 194.57048 199.9702 209.53853 214.93825 217.9297 226.89325 234.38806 242.75765 247.5634 252.96314 261.9591 270.95506 275.7608 281.45213 289.21693 294.61668 304.185 308.38597 314.39048 317.39274 325.22233 329.4881 335.79499 340.60075 345.40647 348.40873 354.41325 362.7828 368.18254 374.18705 380.19154 383.1938 386.19606 391.00178 396.40153 400.60249 403.60475 409.00447 415.00898 422.87098 431.27296 435.47395 441.47843 446.28419 454.0814 458.31477 463.1205 467.92625 472.732 478.4341 486.18809 493.68293 499.08265 503.316 512.582">strictlylocal,andinSection6.2wecommentonthisspeci&#xfb01;capplication.Otherrecentwork[</tspan></text>
<text xml:space="preserve" transform="matrix(1 0 -0 1 -208.75 669.79)" font-size="10.9091" font-family="LMRoman10"><tspan y="-345.413" x="510.172">7</tspan></text>
<text xml:space="preserve" transform="matrix(.9899495 0 -0 1.0101526 -208.75 669.79)" font-size="10.799458" font-family="LMRoman10"><tspan y="-341.94139" x="520.86087 527.4269 532.8266 535.82888 540.0946">]also</tspan></text>
<text xml:space="preserve" transform="matrix(1.0069758 0 -0 .9930726 -208.75 669.79)" font-size="10.985198" font-family="LMRoman10"><tspan y="-334.179" x="71.50122 75.84038 81.94814 87.44074 92.93334 97.821758 102.16091 106.43416 111.32257 121.033489 125.30673 131.4145 139.89508 144.7835 150.58368 154.85694 159.74535 165.8531 170.19226 173.24616 178.73876 188.44966 192.7229 201.80767 210.04657 216.91231 224.39324 232.63213 240.57442 246.06702 253.99832 259.49095 269.20185 274.38688 279.89045 284.77885 290.59004 296.6978 305.17839 308.53987 314.03245 321.94178 326.248 331.1364 335.47557 340.36396 345.85658 350.1518 354.7436 360.85139 367.50843 373.61619 377.9224 383.415 389.8194 395.31199 399.65113 402.70503 408.8128 417.90855 422.18177 428.28956 433.78218 441.64756 447.14015 453.24794 461.73948 467.23207 473.33985 479.44764 483.75386 489.24644 494.73905 499.3199 509.03083 518.18148 521.23538 526.7279 532.5391">suggestedtheextensiontoALPUsasanavenueforresearch,proposingthatoneapproachmight</tspan></text>
<text xml:space="preserve" transform="matrix(1.0099504 0 -0 .99014756 -208.75 669.79)" font-size="11.017651" font-family="LMRoman10"><tspan y="-321.4824" x="71.290637 74.35354 80.18187 85.70171 91.21054 94.273448 99.78227 108.46418 116.72742 119.79032 125.29916 138.24489 142.59687 146.88274 152.39156 158.51737 161.58028 164.64319 167.70609 171.69449 181.29085 185.60976 190.51262 194.8646 200.9904 204.05332 208.33917 216.45919 219.8306 225.33942 233.4374 238.94622 245.36949 250.27236 254.5913 260.1001 264.386 269.8948 277.99278 283.5016 286.56449 292.0733 296.97618 303.10197 307.4209 312.92973 317.28169 325.6661 333.62089 339.74668 342.80958 350.9296 353.9925 362.1235 368.24934 372.56828 377.4711 382.37394 385.43687 389.78883 394.69166 397.75456 407.33995 411.62583 417.75163 426.43354 431.94233 438.06816 444.19398 448.51289 454.0217 459.53053 464.1359 474.02976 478.3156 483.82444 489.34428 494.24714 504.15199 507.2149 517.10879 521.39468 527.52047 530.5834">involveUlamstabilityresultsforoperatoralgebras.Thisispreciselytheapproachtakeninthis</tspan></text>
<text xml:space="preserve" transform="matrix(1 0 -0 1 -208.75 669.79)" font-size="10.9091" font-family="LMRoman10"><tspan y="-304.766" x="71.607 79.17792 84.63247 88.90884 94.66884 102.567028 110.4434 116.50886 125.00704 129.31613 133.55977 139.01432 145.07978 148.1125 151.14524 154.17797 158.11615 167.5198 171.79618 176.65073 180.95983 187.02529 190.05802 194.30165 202.2544 209.82532 218.32352 224.38898 228.69808 237.19628 240.229 245.68355 251.13809 257.80357 263.25813 268.71269 275.38905 280.8436 286.90907 296.61817 302.07273 308.13819 313.59275 322.68003 327.53459 333.2946 341.1819 348.7637 353.60737 357.88374 366.38194 372.4474 377.30195 382.7565 387.61106 390.64378 396.09834 402.46925 407.3238 417.0329 421.27656 427.342 431.61839 437.07295 443.1384 448.59297 454.65843 460.11299 466.17845 474.06575 478.3094 484.37486 492.87306 498.3276 503.78218 509.23674 514.6913 522.644 528.0985 534.16397">work.Thestabilityresultsweuse[24,25]andaugmentweredevelopedthroughoutthe1970sand</tspan></text>
<text xml:space="preserve" transform="matrix(1.0009996 0 -0 .9990015 -208.75 669.79)" font-size="10.920003" font-family="LMRoman10"><tspan y="-291.50807" x="71.9281 77.3881 82.84811 90.78695 94.12847 99.58848 107.49456 111.80796 116.05584 122.127368 128.19889 133.96465 137.0004 143.07192 152.15735 158.22887 163.38312 174.89279 180.35279 186.71915 191.57855 195.85918 201.31917 205.56705 211.02704 218.93314 224.39313 227.42888 232.88887 237.74828 243.8198 248.10045 253.56044 261.49928 267.87657 272.73594 278.80747 283.9617 289.4217 297.90653 303.97804 310.04954 316.12104 320.98045 328.8865 335.26377 340.12318 344.4038 348.6517 354.7232 359.00386 365.07536 370.53535 374.78324 377.81898 383.279 389.3505 397.22383 401.16596 406.9317 411.1796 415.4602 418.49598 423.95597 430.02748 433.06324 439.13475 444.59474 447.6305 452.4899 459.15107 463.4317 468.2911 471.32688 476.78688 481.03477 485.89414 495.5911 501.35685 507.42835 512.2878 516.60116 520.84909 523.8848 529.34487 535.4163">80sforstudyinghowoperatoralgebrasbehaveunderperturbation.Intriguingly,relatedquestions</tspan></text>
<text xml:space="preserve" transform="matrix(1.0099504 0 -0 .99014756 -208.75 669.79)" font-size="11.017651" font-family="LMRoman10"><tspan y="-280.42994" x="71.290637 76.79946 83.22275 88.731578 94.85738 103.26386 109.698169 114.60101 118.91994 123.2058 129.33162 133.65053 139.77635 145.28517 149.57103 152.63394 158.14278 164.26859 172.74117 180.3874 185.29027 189.60918 198.63265 202.9185 208.42734 213.03273 218.85004 221.91295 226.81581 237.06223 243.18804 249.31385 255.43967 260.3425 268.782 278.41145 284.53724 287.60017 294.02345 298.9263 303.24525 308.14808 313.9764 322.38288 327.8917 334.0175 337.0804 341.43238 350.45579 353.5187 363.7651">aboutperturbationsweretackledunderadi&#xfb00;erentguisein[</tspan></text>
<text xml:space="preserve" transform="matrix(1 0 -0 1 -208.75 669.79)" font-size="10.9091" font-family="LMRoman10"><tspan y="-277.667" x="370.302 375.75657">26</tspan></text>
<text xml:space="preserve" transform="matrix(1.0099504 0 -0 .99014756 -208.75 669.79)" font-size="11.017651" font-family="LMRoman10"><tspan y="-280.42994" x="377.45518 384.63868 388.92457 393.8274 397.1988 406.61888 410.90476 417.03056 421.9334 424.9963 433.43583 441.3906 447.5164 452.41926 457.92808 462.24699 467.14985 480.44813 485.95695 489.01985 494.52867 498.8145 506.13026 509.19316 519.4396 523.72549 529.85128">](cf.theirTheorem3.6),inthe</tspan></text>
<text xml:space="preserve" transform="matrix(1 0 -0 1 -208.75 669.79)" font-size="10.9091" font-family="LMRoman10"><tspan y="-264.118" x="72 76.85455 82.309108 88.06911 92.312747 97.1673 102.9273 110.814579 116.26913 123.24004 129.00005 135.0655 140.52005 146.28006 150.5237 156.58916 169.32009 175.38555 180.2401 186.0001 189.03284 193.88739 202.37468 207.22924 212.08379 216.36016 220.60379 223.63652 229.70198 234.55654 240.01108 244.25472 247.28745 252.74199 258.80744">contextofquantumdevicecerti&#xfb01;cation.</tspan></text>
<text xml:space="preserve" transform="matrix(.9899495 0 -0 1.0101526 -208.75 669.79)" font-size="10.799458" font-family="LMRoman10"><tspan y="-248.05063" x="89.83891 97.787319 102.59308 107.992809 113.39253 117.62592 123.630428 126.632678 132.63716 141.12554 145.32653 151.33103 159.21463 164.02039 169.42012 175.12224 180.52196 185.31693 189.55031 193.8269 201.71051 205.9115 214.39987 218.60086 224.60536 232.48896 239.23862 242.24086 247.04663 253.05113 256.64735 264.59577 269.99549 276 279.00224 285.00675 289.27253 294.67225 303.7654 310.0723 315.47203 321.4873 327.49183 333.4963 337.7621 343.96098 348.22676 353.0325 360.9269">RegardingtheconversetotheLieb-Robinsonbounds,see[</tspan></text>
<text xml:space="preserve" transform="matrix(1 0 -0 1 -208.75 669.79)" font-size="10.9091" font-family="LMRoman10"><tspan y="-250.569" x="360.107 365.56156">27</tspan></text>
<text xml:space="preserve" transform="matrix(.9899495 0 -0 1.0101526 -208.75 669.79)" font-size="10.799458" font-family="LMRoman10"><tspan y="-248.05063" x="374.7827 380.87364 384.17826 389.578 396.8892 399.89146 405.59358 409.79457 414.60029 418.83366 423.6394 427.90519 432.10615 435.1084 441.1129 449.59049 457.0853 462.48503 466.71839 475.5092 483.30638 489.31089 492.31315 496.8057 505.89888 511.90336 516.7091 522.1089 526.9146 529.9168 535.3166 541.32107">]forinterestingworkwhichdevelops</tspan></text>
<text xml:space="preserve" transform="matrix(1.0009996 0 -0 .9990015 -208.75 669.79)" font-size="10.920003" font-family="LMRoman10"><tspan y="-237.2569" x="71.9281 81.01354 85.29419 90.15359 93.18935 98.64935 102.89723 107.75664 117.46452 122.32392 127.78393 133.54969 139.00969 143.8691 148.14974 152.46314 160.9589 168.84314 171.87889 176.12677 185.82373 191.89525 194.931 201.29737 206.15677 210.43741 215.29682 221.06258 228.94683 234.40682 238.72022 243.03363 249.10515 258.20155 264.27305 268.5209 271.55668 277.01667 283.08818 287.40159 295.2749 303.15916 309.23066 314.09007 323.49217 327.80558 333.87709 339.0313 350.541 354.78889 360.86039 366.32038 374.20463 377.24037 384.2073 389.67823 395.1382 404.83515 410.29518 413.3309 417.61155 422.47096 427.93095 434.00245 443.39363 449.1594 455.2309 460.39607">arelatedconversewithdi&#xfb00;erentassumptions.Theyshowthatifyoualreadyknow</tspan></text>
<text xml:space="preserve" transform="matrix(1 0 -0 1 -208.75 669.79)" font-size="10.9091" font-family="LMMathItalic10" font-style="italic"><tspan y="-237.02" x="472.183">&#x03b1;</tspan></text>
<text xml:space="preserve" transform="matrix(1.0009996 0 -0 .9990015 -208.75 669.79)" font-size="10.920003" font-family="LMRoman10"><tspan y="-237.2569" x="482.3528 485.38859 493.32743 498.7874 503.64683 509.71833 514.5777 518.85836 524.31838 528.5662 533.42568">isgenerated</tspan></text>
<text xml:space="preserve" transform="matrix(1.0004999 0 -0 .9995003 -208.75 669.79)" font-size="10.914554" font-family="LMRoman10"><tspan y="-223.58272" x="71.96403 77.72691 87.135257">bya</tspan></text>
<text xml:space="preserve" transform="matrix(1 0 -0 1 -208.75 669.79)" font-size="10.9091" font-family="LMMathItalic10" font-style="italic"><tspan y="-223.471" x="96.276">k</tspan></text>
<text xml:space="preserve" transform="matrix(1.0004999 0 -0 .9995003 -208.75 669.79)" font-size="10.914554" font-family="LMRoman10"><tspan y="-223.58272" x="102.247898 105.88244 108.91669 114.67958 119.53655 124.993839 131.66263 139.84854 145.30582 154.39765 157.4319 160.46614 164.7119 170.16919 176.23769 179.27193 184.72922 194.44315 198.7544 204.21167 208.45743 211.49169 215.80294 219.14278 224.90566 227.93991 234.00839 243.11113 252.21387 259.03547 262.0697 266.9267 272.9952 276.62974 284.66285 290.12013 296.18864 299.22288 305.29139 309.60264 315.0599 321.1284 324.76295 327.79719 330.83143 336.28874 344.79118 349.64814 355.1054 361.1739 367.2424 370.27665 374.52244 377.55668 383.01396 389.08244 395.76216 400.0079 406.07643 410.93339 420.64735 424.89314 430.9616 439.45314 444.31013 449.77833 455.2356 458.26985 464.33833 468.5841 471.61836 477.07563 486.77867 491.63563 497.0929 506.80686 512.26419 515.2984 519.6097 528.7124 535.08657">-localHamiltoniansatisfyingaLieb-Robinson-likecondition,thentheevolutioncanalsobe</tspan></text>
<text xml:space="preserve" transform="matrix(.9899495 0 -0 1.0101526 -208.75 669.79)" font-size="10.799458" font-family="LMRoman10"><tspan y="-207.81118" x="72.73098 78.13071 82.93647 88.94097 93.74673 97.98012 103.379848 107.58083 112.3866 121.02616 126.72828 135.06546">generatedbya</tspan></text>
<text xml:space="preserve" transform="matrix(.9899495 0 -0 1.0101526 -208.75 669.79)" font-size="10.799458" font-family="LMRoman10" font-style="italic"><tspan y="-207.81118" x="143.05577 148.02352 152.42969 157.94821 166.78217 171.74993 175.33533 179.8927 183.20813 187.6143 193.13283 196.73986 199.50452">geometrically</tspan></text>
<text xml:space="preserve" transform="matrix(.9899495 0 -0 1.0101526 -208.75 669.79)" font-size="10.799458" font-family="LMRoman10"><tspan y="-207.81118" x="208.00353 211.00577 216.70789 221.51364 226.91338">local</tspan></text>
<text xml:space="preserve" transform="matrix(1 0 -0 1 -208.75 669.79)" font-size="10.9091" font-family="LMMathItalic10" font-style="italic"><tspan y="-209.921" x="230.206">k</tspan></text>
<text xml:space="preserve" transform="matrix(.9899495 0 -0 1.0101526 -208.75 669.79)" font-size="10.799458" font-family="LMRoman10"><tspan y="-207.81118" x="238.6273 242.22353 245.22579 250.92789 255.73366 261.1334 266.7707 274.8703 280.27003 289.266 292.26823 295.27049 299.47148 304.8712 310.87568 313.87794 319.27766 325.28218 332.8418 340.63899 346.6435 351.44926 354.45149 361.31993 366.11488 371.51463 377.5299 383.5344 386.53666 390.73765 393.73988 399.13963 407.77919 412.57414 417.97386 426.61344 432.9311 440.37193 444.86448 450.869 455.6747 460.17808 465.57783 470.38356 479.02314 484.42286 491.25889 494.26115 500.26567 506.27015 511.96147 516.1624 520.9682 525.23397 528.2362 537.2321 542.63186">-localHamiltonian.Theirconditioncanbecheckedatin&#xfb01;ntesimal</tspan></text>
<text xml:space="preserve" transform="matrix(1 0 -0 1 -208.75 669.79)" font-size="10.9091" font-family="LMRoman10"><tspan y="-196.372" x="72 76.24364 79.27637 88.36365 93.2182 97.5273 105.40367 109.34186 119.05096 123.9055 129.36005 135.12006 139.3637 143.64006 149.0946 153.4037 157.64734 164.3128 171.89464 180.38193 186.44739 195.53467 201.60013 207.05467 214.94196 220.3965 224.7056 229.0147 235.08016 244.16744 252.65473 256.89839 262.96385 271.4511 279.63294 286.4511 293.88023 305.7057 308.7384 316.6802 322.13478 326.98933 333.05479 337.90934 342.1857 347.64027 351.8839 356.73847 366.43666 372.20756 381.60029 387.05485 392.81486">times.Incontrast,wedonotassumetheALPUisgeneratedbyany</tspan></text>
<text xml:space="preserve" transform="matrix(1 0 -0 1 -208.75 669.79)" font-size="10.9091" font-family="LMMathItalic10" font-style="italic"><tspan y="-196.372" x="402.06">k</tspan></text>
<text xml:space="preserve" transform="matrix(1 0 -0 1 -208.75 669.79)" font-size="10.9091" font-family="LMRoman10"><tspan y="-196.372" x="408.083 411.71574 414.74845 420.50846 425.363 430.81758 437.483 445.66484 451.1194 460.20668 463.23939 466.2721 470.51576 475.9703 482.03578 485.06849 490.52305 496.5885">-localHamiltonian.</tspan></text>
<text xml:space="preserve" transform="matrix(1 0 -0 1 -208.75 669.79)" font-size="11.9552" font-family="LMRoman12" font-weight="bold"><tspan y="-167.15999" x="72 78.73078 82.47276 102.653148 110.125148 117.597148 128.81113 140.0251 146.56459 152.06398 163.64858 170.37935 178.97515 184.47454 190.60755 195.91565 203.38765 207.12963 212.366">1.2Summaryofresults</tspan></text>
<text xml:space="preserve" transform="matrix(.9899495 0 -0 1.0101526 -208.75 669.79)" font-size="10.799458" font-family="LMRoman10"><tspan y="-145.09194" x="72.33399 80.131198 86.1357 94.591678 98.79266 104.80797 109.60293 115.002658 119.236049 128.59918 131.60143 139.51743 143.41603 149.11815 155.12265 158.1249 162.93067 168.33039 171.33264 174.33489 183.68721 186.99185 192.39159 196.62497 205.31853 211.32303 214.32527 219.725 223.926 228.73175 238.38648 241.38872 251.05425 255.25524 261.2597 269.71568 277.81529 282.621 285.62327 289.88905 294.69477 300.39689 306.70378 311.50953 315.7429 324.80363 330.80815 333.8104 338.61613 342.8171 348.8216 353.05497 357.86073 364.51319 369.9129 374.71867 378.91963 381.92189 387.9264 396.98713 402.38685 412.04158 417.44129 423.75895 428.5647 432.79808 438.1978 442.39878 447.7985 452.0319 459.94789 464.18125 469.58097 473.78196 479.78645 484.5922 492.47578 496.67677 502.69206 508.09178 517.74649 522.01229 526.2132 531.613 535.8139 540.6197 544.88546">ThetheoryistypicallyformulatedintheHeisenbergpicture,actingonoperatorsratherthanstates.</tspan></text>
<text xml:space="preserve" transform="matrix(1.0014988 0 -0 .9985033 -208.75 669.79)" font-size="10.925451" font-family="LMRoman10"><tspan y="-133.2154" x="71.49984 79.388019 85.46257 88.49985 96.45358 102.539058 107.38995 113.47543 119.54998 122.587268 126.837268 129.86362 135.32636 145.04999 148.08727 156.041 165.1419 170.60463 174.88742 183.39835 189.47289 194.93561 199.18563 205.26016 209.54296 215.00568 221.68112 225.02433 230.48705 238.408 241.44528 247.51982 253.59438 259.6689 262.7062 266.9562 275.46714 279.78269 285.55134 289.86689 294.11689 298.9787 308.0796 312.39515 320.3052 328.4993 334.57383 337.6111 341.8611 347.32386 351.60664 361.01344 367.08796 372.8566 378.93116 384.39387 393.49476 396.53205 401.3939 409.35853 414.82127 421.8026 426.0526 432.12718 440.6381 446.40675 452.48127 457.944 463.71266 467.96266 474.0372 486.77626 491.0918 496.86045 501.176 505.426 510.2878 523.0378 527.89968 533.36239">Thisde&#xfb01;nitionismorenaturalforin&#xfb01;nitesystems.Unitarydynamicsofthequantumsystemcan</tspan></text>
<text xml:space="preserve" transform="matrix(.9899495 0 -0 1.0101526 -208.75 669.79)" font-size="10.799458" font-family="LMRoman10"><tspan y="-118.26629" x="72.73098 76.93197 82.93647 87.742229 96.68418 103.00186 110.74508 116.74958 121.555339 125.82113 130.62688 134.86028 137.86252 144.1694 148.97518 157.91712 163.61923 172.2588 177.65853 186.60048 192.00022 198.00472 202.2057 207.60543 216.60138 222.0011 226.2345 232.239 238.2435 241.24575 245.51154 257.44493 262.84465 269.0975 274.49726 283.4392 288.83894 295.1458 299.95158 304.18495 309.58467 313.78565 319.18537 326.3562 331.75593 334.75819 340.1579 344.96366 350.96815 355.2015 360.60127 368.25807">thenbedescribedbyanautomorphismofanoperatoralgebra.A</tspan></text>
<text xml:space="preserve" transform="matrix(.9899495 0 -0 1.0101526 -208.75 669.79)" font-size="10.799458" font-family="LMRoman10" font-style="italic"><tspan y="-118.26629" x="379.1405 384.10826 389.90757 395.42613 401.4954 405.0808 410.88014 422.97554 427.3817 432.34947 435.96726 438.73194 444.53123 447.2959 452.81443 460.63325 466.1518 471.9511 475.53654 481.05506 489.889 495.40757 498.99296 504.5115">quantumcellularautomaton</tspan></text>
<text xml:space="preserve" transform="matrix(.9899495 0 -0 1.0101526 -208.75 669.79)" font-size="10.799458" font-family="LMRoman10"><tspan y="-118.26629" x="514.07266 518.2736 526.6756 534.47286 542.5724">(QCA)</tspan></text>
<text xml:space="preserve" transform="matrix(.99849888 0 -0 1.0015034 -208.75 669.79)" font-size="10.892724" font-family="LMRoman10"><tspan y="-105.75901" x="71.71466 79.579219 82.60738 86.84466">with</tspan></text>
<text xml:space="preserve" transform="matrix(.99849888 0 -0 1.0015034 -208.75 669.79)" font-size="10.892724" font-family="LMRoman10" font-style="italic"><tspan y="-105.75901" x="96.54293 100.58414 106.150318 111.71649 115.060558 120.90995">radius</tspan></text>
<text xml:space="preserve" transform="matrix(1 0 -0 1 -208.75 669.79)" font-size="10.9091" font-family="LMMathItalic10" font-style="italic"><tspan y="-105.918" x="129.22">R</tspan></text>
<text xml:space="preserve" transform="matrix(.99849888 0 -0 1.0015034 -208.75 669.79)" font-size="10.892724" font-family="LMRoman10"><tspan y="-105.75901" x="141.44234 146.88869 156.5941 160.89675 166.3431 175.41674 183.91306 186.94124 192.3876 196.62488 200.86214 203.89032 208.73758 217.2339 222.68027 229.65161 233.96514 240.02149 243.04967 252.74419 257.05769 262.80906 267.1117 271.34895 276.19624 285.26988 293.2107 296.23884 304.19056 309.6369 319.34233 324.78868 330.84504 335.08229 340.52864 349.6023 355.0486 359.31858 365.37495 371.4313 374.45948 378.76213">onsomelatticeofspinsystemsisanautomorphism</tspan></text>
<text xml:space="preserve" transform="matrix(1 0 -0 1 -208.75 669.79)" font-size="10.9091" font-family="LMMathItalic10" font-style="italic"><tspan y="-105.918" x="390.782">&#x03b1;</tspan></text>
<text xml:space="preserve" transform="matrix(.99849888 0 -0 1.0015034 -208.75 669.79)" font-size="10.892724" font-family="LMRoman10"><tspan y="-105.75901" x="402.04655 407.4929 414.47514 418.71238 424.76875 433.26509 438.71144 441.7396 447.18595 452.0332 458.08958 462.35954">ofthealgebra</tspan></text>
<text xml:space="preserve" transform="matrix(1 0 -0 1 -208.75 669.79)" font-size="10.9091" font-family="LMMathSymbols10" font-style="italic"><tspan y="-105.918" x="470.71">A</tspan></text>
<text xml:space="preserve" transform="matrix(.99849888 0 -0 1.0015034 -208.75 669.79)" font-size="10.892724" font-family="LMRoman10"><tspan y="-105.75901" x="483.78926 489.2356 496.21784 501.66419 508.02555 512.8728 517.14279 522.5891 526.82638 532.2727 536.54269">ofoperators</tspan></text>
<text xml:space="preserve" transform="matrix(1 0 -0 1 -208.75 669.79)" font-size="10.9091" font-family="LMRoman10"><tspan y="-72" x="303.273">4</tspan></text>
</g>
<g clip-path="url(#clip_51)">
<g>
<path transform="matrix(1,0,0,-1,-208.75,669.79)" d="M209.25 626.03H422.951V669.29006H209.25Z" fill="#ffffff" fill-opacity=".1" fill-rule="evenodd"/>
<path transform="matrix(1,0,0,-1,-208.75,669.79)" stroke-width="1" stroke-linecap="butt" stroke-miterlimit="10" stroke-linejoin="miter" fill="none" stroke="#00a5e4" stroke-opacity=".1" d="M209.25 626.03H422.951V669.29006H209.25Z"/>
</g>
</g>
</svg>
